<svg width="10" height="13" viewBox="0 0 10 13" fill="none" xmlns="http://www.w3.org/2000/svg">
<path d="M9.79902 6.025V7.1375L-0.000976391 12.2375V10.3125C-0.000976391 10.1542 0.0365236 10.0125 0.111524 9.8875C0.186524 9.7625 0.31569 9.65417 0.499024 9.5625L5.54902 7.0125C5.72402 6.92083 5.91152 6.84167 6.11152 6.775C6.31986 6.7 6.53236 6.6375 6.74902 6.5875C6.53236 6.52917 6.31986 6.46667 6.11152 6.4C5.91152 6.33333 5.72402 6.25417 5.54902 6.1625L0.499024 3.6C0.31569 3.50833 0.186524 3.4 0.111524 3.275C0.0365236 3.15 -0.000976391 3.0125 -0.000976391 2.8625V0.924999L9.79902 6.025Z" fill="#17453B" fill-opacity="0.8"/>
</svg>
