<svg width="55" height="24" viewBox="0 0 55 24" fill="none" xmlns="http://www.w3.org/2000/svg">
<path d="M6.456 12.48C6.08 12.664 5.668 12.808 5.22 12.912C5.668 13.016 6.08 13.16 6.456 13.344L10.812 15.588C10.996 15.676 11.128 15.788 11.208 15.924C11.288 16.06 11.328 16.208 11.328 16.368V18.48L1.812 13.512V12.312L11.328 7.356V9.468C11.328 9.628 11.288 9.776 11.208 9.912C11.128 10.04 10.996 10.152 10.812 10.248L6.456 12.48Z" fill="#456A62"/>
<path d="M21.895 9.909V17H20.642V13.682H17.24V17H15.987V9.909H17.24V12.737H20.642V9.909H21.895ZM27.7187 13.808C27.1447 13.8267 26.6547 13.8733 26.2487 13.948C25.8473 14.018 25.5183 14.1113 25.2617 14.228C25.0097 14.3447 24.8253 14.4823 24.7087 14.641C24.5967 14.7997 24.5407 14.977 24.5407 15.173C24.5407 15.3597 24.571 15.5207 24.6317 15.656C24.6923 15.7913 24.774 15.9033 24.8767 15.992C24.984 16.076 25.1077 16.139 25.2477 16.181C25.3923 16.2183 25.5463 16.237 25.7097 16.237C25.929 16.237 26.1297 16.216 26.3117 16.174C26.4937 16.1273 26.664 16.062 26.8227 15.978C26.986 15.894 27.14 15.7937 27.2847 15.677C27.434 15.5603 27.5787 15.4273 27.7187 15.278V13.808ZM23.6937 10.91C24.0857 10.532 24.508 10.2497 24.9607 10.063C25.4133 9.87633 25.915 9.783 26.4657 9.783C26.8623 9.783 27.2147 9.84833 27.5227 9.979C27.8307 10.1097 28.0897 10.2917 28.2997 10.525C28.5097 10.7583 28.6683 11.0407 28.7757 11.372C28.883 11.7033 28.9367 12.0673 28.9367 12.464V17H28.3837C28.2623 17 28.169 16.9813 28.1037 16.944C28.0383 16.902 27.987 16.8227 27.9497 16.706L27.8097 16.034C27.623 16.2067 27.441 16.3607 27.2637 16.496C27.0863 16.6267 26.8997 16.7387 26.7037 16.832C26.5077 16.9207 26.2977 16.9883 26.0737 17.035C25.8543 17.0863 25.6093 17.112 25.3387 17.112C25.0633 17.112 24.8043 17.0747 24.5617 17C24.319 16.9207 24.1067 16.804 23.9247 16.65C23.7473 16.496 23.605 16.3023 23.4977 16.069C23.395 15.831 23.3437 15.551 23.3437 15.229C23.3437 14.949 23.4207 14.6807 23.5747 14.424C23.7287 14.1627 23.9783 13.9317 24.3237 13.731C24.669 13.5303 25.1193 13.367 25.6747 13.241C26.23 13.1103 26.9113 13.0357 27.7187 13.017V12.464C27.7187 11.9133 27.5997 11.498 27.3617 11.218C27.1237 10.9333 26.776 10.791 26.3187 10.791C26.0107 10.791 25.7517 10.8307 25.5417 10.91C25.3363 10.9847 25.1567 11.071 25.0027 11.169C24.8533 11.2623 24.7227 11.3487 24.6107 11.428C24.5033 11.5027 24.396 11.54 24.2887 11.54C24.2047 11.54 24.1323 11.519 24.0717 11.477C24.011 11.4303 23.9597 11.3743 23.9177 11.309L23.6937 10.91ZM30.3867 10.637C30.6527 10.385 30.9747 10.182 31.3527 10.028C31.7353 9.874 32.195 9.797 32.7317 9.797C33.161 9.797 33.539 9.85067 33.8657 9.958C34.1923 10.0607 34.4653 10.1983 34.6847 10.371C34.9087 10.5437 35.0767 10.742 35.1887 10.966C35.3053 11.1853 35.3637 11.414 35.3637 11.652C35.3637 11.792 35.3403 11.939 35.2937 12.093C35.2517 12.247 35.1793 12.394 35.0767 12.534C34.974 12.674 34.841 12.8047 34.6777 12.926C34.5143 13.0473 34.3113 13.1453 34.0687 13.22C34.5213 13.3553 34.876 13.5723 35.1327 13.871C35.394 14.1697 35.5247 14.536 35.5247 14.97C35.5247 15.2967 35.45 15.593 35.3007 15.859C35.1513 16.1203 34.9507 16.3443 34.6987 16.531C34.4467 16.713 34.1527 16.853 33.8167 16.951C33.4853 17.049 33.1377 17.098 32.7737 17.098C32.545 17.098 32.3117 17.077 32.0737 17.035C31.8403 16.993 31.6117 16.9277 31.3877 16.839C31.1637 16.7457 30.9513 16.6313 30.7507 16.496C30.5547 16.3607 30.3797 16.1973 30.2257 16.006L30.5757 15.551C30.6317 15.4717 30.711 15.432 30.8137 15.432C30.8977 15.432 30.9863 15.4693 31.0797 15.544C31.1777 15.614 31.2967 15.6933 31.4367 15.782C31.5767 15.8707 31.747 15.9523 31.9477 16.027C32.153 16.097 32.4027 16.132 32.6967 16.132C32.9533 16.132 33.182 16.1017 33.3827 16.041C33.588 15.9757 33.7607 15.887 33.9007 15.775C34.0407 15.663 34.148 15.53 34.2227 15.376C34.2973 15.222 34.3347 15.054 34.3347 14.872C34.3347 14.522 34.1877 14.2397 33.8937 14.025C33.6043 13.8103 33.1633 13.703 32.5707 13.703H31.7657V12.877H32.5707C32.8273 12.877 33.0583 12.8513 33.2637 12.8C33.469 12.744 33.644 12.6693 33.7887 12.576C33.9333 12.4827 34.043 12.3707 34.1177 12.24C34.1923 12.1047 34.2297 11.96 34.2297 11.806C34.2297 11.666 34.197 11.533 34.1317 11.407C34.071 11.281 33.9753 11.1713 33.8447 11.078C33.7187 10.9847 33.56 10.91 33.3687 10.854C33.1773 10.798 32.9533 10.77 32.6967 10.77C32.4167 10.77 32.1787 10.798 31.9827 10.854C31.7913 10.91 31.628 10.9707 31.4927 11.036C31.362 11.1013 31.2547 11.162 31.1707 11.218C31.0867 11.274 31.0143 11.302 30.9537 11.302C30.893 11.302 30.8417 11.2903 30.7997 11.267C30.7623 11.2437 30.7203 11.1947 30.6737 11.12L30.3867 10.637ZM40.9667 13.808C40.3927 13.8267 39.9027 13.8733 39.4967 13.948C39.0954 14.018 38.7664 14.1113 38.5097 14.228C38.2577 14.3447 38.0734 14.4823 37.9567 14.641C37.8447 14.7997 37.7887 14.977 37.7887 15.173C37.7887 15.3597 37.8191 15.5207 37.8797 15.656C37.9404 15.7913 38.0221 15.9033 38.1247 15.992C38.2321 16.076 38.3557 16.139 38.4957 16.181C38.6404 16.2183 38.7944 16.237 38.9577 16.237C39.1771 16.237 39.3777 16.216 39.5597 16.174C39.7417 16.1273 39.9121 16.062 40.0707 15.978C40.2341 15.894 40.3881 15.7937 40.5327 15.677C40.6821 15.5603 40.8267 15.4273 40.9667 15.278V13.808ZM36.9417 10.91C37.3337 10.532 37.7561 10.2497 38.2087 10.063C38.6614 9.87633 39.1631 9.783 39.7137 9.783C40.1104 9.783 40.4627 9.84833 40.7707 9.979C41.0787 10.1097 41.3377 10.2917 41.5477 10.525C41.7577 10.7583 41.9164 11.0407 42.0237 11.372C42.1311 11.7033 42.1847 12.0673 42.1847 12.464V17H41.6317C41.5104 17 41.4171 16.9813 41.3517 16.944C41.2864 16.902 41.2351 16.8227 41.1977 16.706L41.0577 16.034C40.8711 16.2067 40.6891 16.3607 40.5117 16.496C40.3344 16.6267 40.1477 16.7387 39.9517 16.832C39.7557 16.9207 39.5457 16.9883 39.3217 17.035C39.1024 17.0863 38.8574 17.112 38.5867 17.112C38.3114 17.112 38.0524 17.0747 37.8097 17C37.5671 16.9207 37.3547 16.804 37.1727 16.65C36.9954 16.496 36.8531 16.3023 36.7457 16.069C36.6431 15.831 36.5917 15.551 36.5917 15.229C36.5917 14.949 36.6687 14.6807 36.8227 14.424C36.9767 14.1627 37.2264 13.9317 37.5717 13.731C37.9171 13.5303 38.3674 13.367 38.9227 13.241C39.4781 13.1103 40.1594 13.0357 40.9667 13.017V12.464C40.9667 11.9133 40.8477 11.498 40.6097 11.218C40.3717 10.9333 40.0241 10.791 39.5667 10.791C39.2587 10.791 38.9997 10.8307 38.7897 10.91C38.5844 10.9847 38.4047 11.071 38.2507 11.169C38.1014 11.2623 37.9707 11.3487 37.8587 11.428C37.7514 11.5027 37.6441 11.54 37.5367 11.54C37.4527 11.54 37.3804 11.519 37.3197 11.477C37.2591 11.4303 37.2077 11.3743 37.1657 11.309L36.9417 10.91ZM48.9687 16.09V10.889H46.7217C46.675 11.617 46.6097 12.261 46.5257 12.821C46.4417 13.381 46.3437 13.8733 46.2317 14.298C46.1244 14.718 46.003 15.075 45.8677 15.369C45.737 15.663 45.5994 15.9033 45.4547 16.09H48.9687ZM51.4747 16.055V19.058C51.4747 19.1793 51.4397 19.2727 51.3697 19.338C51.3044 19.408 51.218 19.443 51.1107 19.443H50.3477V17H44.3837V19.086C44.3837 19.1747 44.3557 19.2563 44.2997 19.331C44.2484 19.4057 44.162 19.443 44.0407 19.443H43.2567V16.09H43.4877C43.651 16.09 43.812 16.062 43.9707 16.006C44.134 15.95 44.2904 15.845 44.4397 15.691C44.589 15.5323 44.729 15.3107 44.8597 15.026C44.995 14.7413 45.1164 14.3703 45.2237 13.913C45.331 13.4557 45.4244 12.9003 45.5037 12.247C45.583 11.589 45.646 10.8097 45.6927 9.909H50.1797V16.055H51.4747Z" fill="#456A62"/>
</svg>
