<svg width="40" height="40" viewBox="0 0 40 40" fill="none" xmlns="http://www.w3.org/2000/svg">
<path d="M20 40C14.6578 40 9.63531 37.9197 5.85781 34.1422C2.08031 30.3647 0 25.3422 0 20C0 14.6578 2.08039 9.63539 5.85781 5.85781C9.63523 2.08023 14.6578 0 20 0C25.3422 0 30.3647 2.08031 34.1422 5.85781C37.9197 9.63531 40 14.6578 40 20C40 25.3422 37.9196 30.3646 34.1422 34.1422C30.3648 37.9198 25.3422 40 20 40ZM20 2.5C10.3505 2.5 2.5 10.3505 2.5 20C2.5 29.6495 10.3505 37.5 20 37.5C29.6495 37.5 37.5 29.6495 37.5 20C37.5 10.3505 29.6495 2.5 20 2.5Z" fill="white" fill-opacity="0.5"/>
<path d="M20.9011 17.5929H31.3821C31.7225 17.5929 32 17.3155 32 16.9748V10.6181C32 10.2774 31.7227 10 31.3821 10H20.9011C20.5606 10 20.2834 10.2774 20.2834 10.6181V13.8116L18.7169 19.238V16.7205C18.7169 16.3798 18.4398 16.1024 18.0991 16.1024H7.61806C7.27765 16.1024 7 16.3798 7 16.7204V23.0769C7 23.4177 7.27735 23.6951 7.61806 23.6951H18.0991C18.4394 23.6951 18.7169 23.4177 18.7169 23.0769V20.4573L20.2834 24.9743V28.3637C20.2834 28.7045 20.5606 28.9819 20.9011 28.9819H31.3821C31.7225 28.9819 32 28.7046 32 28.3637V22.0072C32 21.6663 31.7227 21.389 31.3821 21.389H20.9011C20.5606 21.389 20.2834 21.6663 20.2834 22.0072V23.9559L18.8744 19.8944L20.2834 15.014V16.9748C20.2834 17.3159 20.5606 17.5929 20.9011 17.5929ZM18.1163 23.0769C18.1163 23.0868 18.1087 23.0945 18.0991 23.0945H7.61806C7.60872 23.0945 7.60075 23.0868 7.60075 23.0769V16.7204C7.60075 16.7112 7.60836 16.7035 7.61806 16.7035H18.0991C18.1084 16.7035 18.1163 16.7111 18.1163 16.7204V23.0769ZM20.8837 22.0072C20.8837 21.9978 20.8914 21.9903 20.9011 21.9903H31.3821C31.3912 21.9903 31.3994 21.9978 31.3994 22.0072V28.3637C31.3994 28.3734 31.3919 28.3813 31.3821 28.3813H20.9011C20.892 28.3813 20.8837 28.3734 20.8837 28.3637V22.0072ZM20.8837 10.6181C20.8837 10.6088 20.8914 10.6011 20.9011 10.6011H31.3821C31.3912 10.6011 31.3994 10.6088 31.3994 10.6181V16.9748C31.3994 16.9845 31.3919 16.9921 31.3821 16.9921H20.9011C20.892 16.9921 20.8837 16.9845 20.8837 16.9748V10.6181Z" fill="white" fill-opacity="0.5"/>
<path d="M20.9011 17.7429H31.3821C31.8053 17.7429 32.15 17.3984 32.15 16.9748V10.6181C32.15 10.1945 31.8056 9.85 31.3821 9.85H20.9011C20.4777 9.85 20.1334 10.1946 20.1334 10.6181V13.7904L18.8669 18.1776V16.7205C18.8669 16.297 18.5227 15.9524 18.0991 15.9524H7.61806C7.19486 15.9524 6.85 16.2969 6.85 16.7204V23.0769C6.85 23.5005 7.19447 23.8451 7.61806 23.8451H18.0991C18.5223 23.8451 18.8669 23.5005 18.8669 23.0769V21.3477L20.1334 24.9995V28.3637C20.1334 28.7873 20.4777 29.1319 20.9011 29.1319H31.3821C31.8053 29.1319 32.15 28.7874 32.15 28.3637V22.0072C32.15 21.5836 31.8056 21.239 31.3821 21.239H20.9011C20.4777 21.239 20.1334 21.5836 20.1334 22.0072V23.0659L19.0317 19.8903L20.1334 16.0743V16.9748C20.1334 17.3987 20.4778 17.7429 20.9011 17.7429ZM17.9663 16.8535V22.9445H7.75075V16.8535H17.9663ZM21.0337 28.2313V22.1403H31.2494V28.2313H21.0337ZM21.0337 10.7511H31.2494V16.8421H21.0337V10.7511Z" stroke="white" stroke-opacity="0.5" stroke-width="0.3"/>
</svg>
