<svg width="25" height="20" viewBox="0 0 25 20" fill="none" xmlns="http://www.w3.org/2000/svg">
<path d="M24.1683 3.06559C23.6692 2.54278 22.98 2.23384 22.1958 2.23384H18.251V2.18631C18.251 1.59221 18.0133 1.02186 17.6093 0.641635C17.2053 0.237643 16.6587 0 16.0646 0H8.93536C8.31749 0 7.77091 0.237643 7.36692 0.641635C6.96293 1.04563 6.72529 1.59221 6.72529 2.18631V2.23384H2.80418C2.01996 2.23384 1.3308 2.54278 0.831749 3.06559C0.3327 3.56464 0 4.27757 0 5.03802V16.8726C0 17.6568 0.308935 18.346 0.831749 18.8451C1.3308 19.3441 2.04373 19.6768 2.80418 19.6768H22.1958C22.98 19.6768 23.6692 19.3679 24.1683 18.8451C24.6673 18.346 25 17.6331 25 16.8726V5.03802C25 4.2538 24.6911 3.56464 24.1683 3.06559ZM23.7643 16.8726H23.7405C23.7405 17.3004 23.5741 17.6806 23.289 17.9658C23.0038 18.251 22.6236 18.4173 22.1958 18.4173H2.80418C2.37643 18.4173 1.9962 18.251 1.71103 17.9658C1.42586 17.6806 1.25951 17.3004 1.25951 16.8726V5.03802C1.25951 4.61027 1.42586 4.23004 1.71103 3.94487C1.9962 3.6597 2.37643 3.49335 2.80418 3.49335H7.39068C7.74715 3.49335 8.03232 3.20817 8.03232 2.85171V2.16255C8.03232 1.90114 8.12738 1.6635 8.29373 1.49715C8.46008 1.3308 8.69772 1.23574 8.95913 1.23574H16.0646C16.326 1.23574 16.5637 1.3308 16.73 1.49715C16.8964 1.6635 16.9914 1.90114 16.9914 2.16255V2.85171C16.9914 3.20817 17.2766 3.49335 17.6331 3.49335H22.2196C22.6473 3.49335 23.0276 3.6597 23.3127 3.94487C23.5979 4.23004 23.7643 4.61027 23.7643 5.03802V16.8726Z" fill="#17453B" fill-opacity="0.8"/>
<path d="M12.4998 5.1095C10.8838 5.1095 9.41046 5.7749 8.36484 6.82052C7.29544 7.88992 6.65381 9.33953 6.65381 10.9555C6.65381 12.5715 7.31921 14.0449 8.36484 15.0905C9.43423 16.1599 10.8838 16.8015 12.4998 16.8015C14.1158 16.8015 15.5892 16.1361 16.6348 15.0905C17.7042 14.0211 18.3458 12.5715 18.3458 10.9555C18.3458 9.33953 17.6804 7.86615 16.6348 6.82052C15.5892 5.7749 14.1158 5.1095 12.4998 5.1095ZM15.7318 14.2112C14.9 15.0192 13.7593 15.542 12.4998 15.542C11.2403 15.542 10.0996 15.0192 9.26788 14.2112C8.43613 13.3795 7.93708 12.2388 7.93708 10.9793C7.93708 9.71976 8.45989 8.57908 9.26788 7.74733C10.0996 6.91558 11.2403 6.41653 12.4998 6.41653C13.7593 6.41653 14.9 6.93934 15.7318 7.74733C16.5635 8.57908 17.0626 9.71976 17.0626 10.9793C17.0863 12.2388 16.5635 13.3795 15.7318 14.2112Z" fill="#17453B" fill-opacity="0.8"/>
<path d="M20.9602 7.41435C21.6033 7.41435 22.1247 6.89301 22.1247 6.2499C22.1247 5.60679 21.6033 5.08545 20.9602 5.08545C20.3171 5.08545 19.7958 5.60679 19.7958 6.2499C19.7958 6.89301 20.3171 7.41435 20.9602 7.41435Z" fill="#17453B" fill-opacity="0.8"/>
</svg>
