<svg width="40" height="40" viewBox="0 0 40 40" fill="none" xmlns="http://www.w3.org/2000/svg">
<path d="M20 40C14.6578 40 9.63531 37.9197 5.85781 34.1422C2.08031 30.3647 0 25.3422 0 20C0 14.6578 2.08039 9.63539 5.85781 5.85781C9.63523 2.08023 14.6578 0 20 0C25.3422 0 30.3647 2.08031 34.1422 5.85781C37.9197 9.63531 40 14.6578 40 20C40 25.3422 37.9196 30.3646 34.1422 34.1422C30.3648 37.9198 25.3422 40 20 40ZM20 2.5C10.3505 2.5 2.5 10.3505 2.5 20C2.5 29.6495 10.3505 37.5 20 37.5C29.6495 37.5 37.5 29.6495 37.5 20C37.5 10.3505 29.6495 2.5 20 2.5Z" fill="white" fill-opacity="0.5"/>
<path d="M22.566 16.3752V15.0464C22.5622 14.2371 22.2381 13.4623 21.6645 12.8914C21.0909 12.3205 20.3145 12 19.5053 12C18.696 12 17.9197 12.3205 17.3461 12.8914C16.7725 13.4623 16.4483 14.2371 16.4445 15.0464V16.3752C16.4483 17.1844 16.7725 17.9593 17.3461 18.5302C17.9197 19.1011 18.696 19.4216 19.5053 19.4216C20.3145 19.4216 21.0909 19.1011 21.6645 18.5302C22.2381 17.9593 22.5622 17.1844 22.566 16.3752ZM17.251 16.3752V15.0464C17.2543 14.4507 17.4932 13.8804 17.9156 13.4603C18.338 13.0402 18.9095 12.8044 19.5053 12.8044C20.101 12.8044 20.6725 13.0402 21.0949 13.4603C21.5173 13.8804 21.7563 14.4507 21.7595 15.0464V16.3752C21.7563 16.9709 21.5173 17.5411 21.0949 17.9612C20.6725 18.3813 20.101 18.6172 19.5053 18.6172C18.9095 18.6172 18.338 18.3813 17.9156 17.9612C17.4932 17.5411 17.2543 16.9709 17.251 16.3752Z" fill="white" fill-opacity="0.5"/>
<path d="M22.666 16.3756V16.3752L22.666 15.0464L22.666 15.0459C22.6621 14.2102 22.3273 13.4101 21.735 12.8205C21.1427 12.231 20.341 11.9 19.5053 11.9C18.6695 11.9 17.8678 12.231 17.2755 12.8205C16.6832 13.4101 16.3485 14.2102 16.3445 15.0459V15.0464L16.3445 16.3752L16.3446 16.3756C16.3485 17.2114 16.6832 18.0115 17.2755 18.6011C17.8678 19.1906 18.6695 19.5216 19.5053 19.5216C20.341 19.5216 21.1427 19.1906 21.735 18.6011C22.3273 18.0115 22.6621 17.2114 22.666 16.3756ZM17.351 16.3749V15.0467C17.3542 14.4775 17.5825 13.9327 17.9861 13.5312C18.3898 13.1298 18.9359 12.9044 19.5053 12.9044C20.0746 12.9044 20.6208 13.1298 21.0244 13.5312C21.428 13.9327 21.6564 14.4775 21.6595 15.0467V16.3749C21.6564 16.9441 21.428 17.4889 21.0244 17.8903C20.6208 18.2918 20.0746 18.5172 19.5053 18.5172C18.9359 18.5172 18.3898 18.2918 17.9861 17.8903C17.5825 17.4889 17.3542 16.9441 17.351 16.3749Z" stroke="white" stroke-opacity="0.5" stroke-width="0.2"/>
<path d="M14.5718 27.7407H24.4388C24.5458 27.7407 24.6483 27.6982 24.724 27.6226C24.7996 27.547 24.8421 27.4444 24.8421 27.3375V26.4119H31.5968C31.7037 26.4119 31.8063 26.3695 31.8819 26.2938C31.9575 26.2182 32 26.1157 32 26.0087V23.3915C31.9996 22.6236 31.7068 21.8846 31.1812 21.3247C30.6556 20.7647 29.9366 20.4259 29.1702 20.377C28.9551 20.3612 28.8446 20.4974 28.7549 20.6067C28.5765 20.8247 28.3507 20.999 28.0947 21.1165C27.8387 21.234 27.5593 21.2915 27.2777 21.2846C26.9962 21.2777 26.7199 21.2066 26.4699 21.0768C26.22 20.947 26.003 20.7618 25.8354 20.5354C25.7969 20.4833 25.7464 20.4412 25.6882 20.4128C25.63 20.3843 25.5658 20.3703 25.5011 20.3719C24.9773 20.3836 24.4658 20.5329 24.0178 20.8046C23.7221 20.4607 23.3603 20.1797 22.954 19.9781C22.5476 19.7766 22.105 19.6586 21.6522 19.6313C21.4439 19.6228 21.3385 19.7493 21.2364 19.8732C21.0271 20.129 20.7622 20.3337 20.4618 20.4715C20.1614 20.6094 19.8335 20.6769 19.503 20.6688C19.1726 20.6608 18.8484 20.5774 18.5551 20.425C18.2618 20.2726 18.0071 20.0553 17.8106 19.7896C17.7721 19.7374 17.7216 19.6953 17.6634 19.6668C17.6052 19.6384 17.541 19.6244 17.4762 19.6261C16.5919 19.6466 15.751 20.0134 15.1345 20.6476C15.0835 20.6997 15.0352 20.7537 14.9881 20.8084C14.5717 20.555 14.0998 20.4068 13.6133 20.3769C13.399 20.3611 13.2876 20.4972 13.1981 20.6066C13.0197 20.8245 12.7939 20.9989 12.5379 21.1164C12.2819 21.2338 12.0025 21.2913 11.7209 21.2845C11.4393 21.2776 11.1631 21.2065 10.9131 21.0767C10.6632 20.9468 10.4462 20.7617 10.2786 20.5353C10.2401 20.4832 10.1896 20.4412 10.1314 20.4127C10.0732 20.3843 10.009 20.3702 9.94429 20.3717C9.15667 20.3918 8.40804 20.7187 7.85802 21.2829C7.308 21.847 7.00011 22.6036 7 23.3915V26.0087C7 26.1157 7.04248 26.2182 7.1181 26.2938C7.19372 26.3695 7.29628 26.4119 7.40323 26.4119H14.1685V27.3375C14.1685 27.4444 14.211 27.547 14.2867 27.6226C14.3623 27.6982 14.4648 27.7407 14.5718 27.7407ZM25.3289 21.1911C25.5775 21.4733 25.8832 21.6995 26.2257 21.8547C26.5682 22.01 26.9397 22.0908 27.3158 22.0917C27.6919 22.0927 28.0638 22.0139 28.4072 21.8604C28.7505 21.707 29.0573 21.4824 29.3074 21.2015C29.8317 21.2806 30.3104 21.5451 30.6564 21.9469C31.0025 22.3487 31.1931 22.8612 31.1936 23.3915V25.6055H24.8421V23.0187C24.8425 22.4818 24.7147 21.9524 24.4694 21.4748C24.7329 21.3211 25.0257 21.2245 25.3289 21.1911ZM17.3024 20.4448C17.5812 20.7676 17.9261 21.0267 18.3137 21.2046C18.7013 21.3825 19.1226 21.4752 19.5491 21.4762C19.9756 21.4772 20.3973 21.3866 20.7858 21.2105C21.1742 21.0344 21.5203 20.7769 21.8007 20.4555C22.4198 20.5411 22.9871 20.8478 23.3979 21.3188C23.8087 21.7899 24.0353 22.3937 24.0359 23.0187V26.9343H14.975V23.0187C14.979 22.3787 15.2185 21.7626 15.6477 21.2878C16.077 20.8131 16.666 20.513 17.3024 20.4448ZM7.80645 25.6055V23.3915C7.80986 22.8482 8.0115 22.3249 8.37351 21.9198C8.73551 21.5146 9.23297 21.2556 9.77245 21.1914C10.021 21.4735 10.3267 21.6996 10.6691 21.8547C11.0116 22.0099 11.3831 22.0907 11.7591 22.0916C12.1351 22.0926 12.507 22.0138 12.8503 21.8603C13.1935 21.7069 13.5003 21.4823 13.7503 21.2015C14.028 21.243 14.2951 21.3373 14.5373 21.4792C14.2942 21.9559 14.1678 22.4836 14.1685 23.0187V25.6055H7.80645Z" fill="white" fill-opacity="0.5"/>
<path d="M14.0685 26.5119H7.40323C7.26976 26.5119 7.14176 26.4589 7.04739 26.3645C6.95302 26.2702 6.9 26.1422 6.9 26.0087V23.3915V23.3915C6.90012 22.5775 7.2182 21.7958 7.78642 21.213C8.35464 20.6303 9.12805 20.2925 9.94174 20.2718L9.94193 20.2718C10.0227 20.2699 10.1027 20.2874 10.1753 20.3229C10.2479 20.3584 10.3109 20.4108 10.359 20.4757L10.359 20.4758C10.5175 20.69 10.7228 20.8651 10.9592 20.9879C11.1956 21.1108 11.457 21.178 11.7234 21.1845C11.9897 21.191 12.254 21.1366 12.4962 21.0255C12.7383 20.9143 12.9519 20.7494 13.1207 20.5432L13.1207 20.5432C13.1222 20.5413 13.1238 20.5394 13.1254 20.5374C13.2131 20.4303 13.3543 20.2578 13.6201 20.2771C14.0945 20.3064 14.5555 20.4445 14.9675 20.6802C14.9983 20.6457 15.03 20.6115 15.0629 20.5778C15.6977 19.9248 16.5635 19.5472 17.4739 19.5261C17.5547 19.5241 17.6348 19.5415 17.7073 19.577C17.78 19.6125 17.843 19.6651 17.891 19.7302M14.0685 26.5119L17.8106 19.7896M14.0685 26.5119V27.3375C14.0685 27.4709 14.1216 27.5989 14.2159 27.6933C14.3103 27.7877 14.4383 27.8407 14.5718 27.8407H24.4388C24.5723 27.8407 24.7003 27.7877 24.7947 27.6933C24.8891 27.5989 24.9421 27.4709 24.9421 27.3375V26.5119M14.0685 26.5119H24.9421M17.891 19.7302C17.891 19.7302 17.891 19.7302 17.8911 19.7303L17.8106 19.7896M17.891 19.7302C17.891 19.7301 17.891 19.7301 17.8909 19.7301L17.8106 19.7896M17.891 19.7302C18.0785 19.9836 18.3214 20.1909 18.6012 20.3362C18.881 20.4816 19.1903 20.5612 19.5055 20.5689C19.8207 20.5766 20.1335 20.5122 20.4201 20.3807C20.7066 20.2491 20.9594 20.0539 21.159 19.8099L21.1592 19.8096L21.1633 19.8048C21.2629 19.6838 21.397 19.5208 21.6563 19.5314L21.6582 19.5315L21.6582 19.5315C22.1244 19.5596 22.5801 19.6811 22.9984 19.8885C23.3917 20.0836 23.7444 20.351 24.0383 20.6766M17.8106 19.7896C18.0071 20.0553 18.2618 20.2726 18.5551 20.425C18.8484 20.5774 19.1726 20.6608 19.503 20.6688C19.8335 20.6769 20.1614 20.6094 20.4618 20.4715C20.7622 20.3337 21.0271 20.129 21.2364 19.8732C21.3385 19.7493 21.4439 19.6228 21.6522 19.6313C22.105 19.6586 22.5476 19.7766 22.954 19.9781C23.3603 20.1797 23.7221 20.4607 24.0178 20.8046M24.0383 20.6766C24.014 20.6904 23.9899 20.7046 23.9659 20.7191L24.0178 20.8046M24.0383 20.6766C24.057 20.6973 24.0754 20.7182 24.0936 20.7394L24.0178 20.8046M24.0383 20.6766C24.4836 20.4227 24.9855 20.2834 25.4988 20.2719M24.0178 20.8046L25.5011 20.3719M13.1981 20.6066L13.1983 20.6063C13.2878 20.497 13.3992 20.3611 13.6133 20.3769C14.0998 20.4068 14.5717 20.555 14.9881 20.8084C15.0352 20.7537 15.0835 20.6997 15.1345 20.6476C15.751 20.0134 16.5919 19.6466 17.4762 19.6261L13.1981 20.6066ZM13.1981 20.6066C13.0197 20.8245 12.7939 20.9989 12.5379 21.1164C12.2819 21.2338 12.0025 21.2913 11.7209 21.2845C11.4393 21.2776 11.1631 21.2065 10.9131 21.0767C10.6632 20.9468 10.4462 20.7617 10.2786 20.5353L13.1981 20.6066ZM25.4988 20.2719L25.5011 20.3719M25.4988 20.2719C25.4988 20.2719 25.4987 20.2719 25.4986 20.2719L25.5011 20.3719M25.4988 20.2719C25.5796 20.2699 25.6596 20.2874 25.7322 20.3229C25.8048 20.3584 25.8678 20.4109 25.9158 20.4759M25.5011 20.3719C25.5658 20.3703 25.63 20.3843 25.6882 20.4128C25.7464 20.4412 25.7969 20.4833 25.8354 20.5354M25.9158 20.4759L25.8354 20.5354M25.9158 20.4759C26.0743 20.6901 26.2796 20.8653 26.516 20.9881C26.7525 21.1109 27.0138 21.1781 27.2802 21.1846C27.5465 21.1911 27.8109 21.1367 28.053 21.0256C28.2952 20.9145 28.5088 20.7495 28.6775 20.5434L28.6776 20.5433L28.6831 20.5366C28.7708 20.4294 28.9112 20.2579 29.177 20.2772M25.9158 20.4759C25.9158 20.4759 25.9158 20.476 25.9158 20.476L25.8354 20.5354M25.8354 20.5354L29.177 20.2772M29.177 20.2772C29.1769 20.2772 29.1767 20.2772 29.1765 20.2772L29.1702 20.377M29.177 20.2772L28.7549 20.6067L28.7562 20.6051C28.8456 20.4961 28.9561 20.3613 29.1702 20.377M29.177 20.2772C29.9686 20.3279 30.7112 20.6779 31.2541 21.2562C31.7971 21.8346 32.0995 22.5981 32.1 23.3915V23.3915V26.0087C32.1 26.1422 32.047 26.2702 31.9526 26.3645C31.8582 26.4589 31.7302 26.5119 31.5968 26.5119H24.9421M29.177 20.2772L24.9421 26.5119M29.177 20.2772C29.1772 20.2772 29.1773 20.2772 29.1775 20.2773L29.1702 20.377M29.177 20.2772L32 23.3915C31.9996 22.6236 31.7068 21.8846 31.1812 21.3247C30.6556 20.7647 29.9366 20.4259 29.1702 20.377M25.2893 21.2967C25.0489 21.3291 24.8161 21.4034 24.6015 21.516C24.8259 21.9847 24.9425 22.4983 24.9421 23.0188M25.2893 21.2967L24.8421 25.5055H24.9421M25.2893 21.2967C25.5407 21.5711 25.8451 21.792 26.1844 21.9458C26.5398 22.1069 26.9253 22.1907 27.3155 22.1917C27.7057 22.1928 28.0917 22.111 28.448 21.9517C28.7874 21.8 29.0924 21.5813 29.3449 21.309M25.2893 21.2967L25.3289 21.1911C25.5775 21.4733 25.8832 21.6995 26.2257 21.8547C26.5682 22.01 26.9397 22.0908 27.3158 22.0917C27.6919 22.0927 28.0638 22.0139 28.4072 21.8604C28.7505 21.707 29.0573 21.4824 29.3074 21.2015M24.9421 23.0188L24.8421 23.0187H24.9421V23.0188ZM24.9421 23.0188V25.5055M24.9421 25.5055V25.6055H31.0935V25.5055M24.9421 25.5055H31.0935M31.0935 25.5055H31.1936V23.3915M31.0935 25.5055V23.3916M31.0935 23.3916L31.1936 23.3915M31.0935 23.3916V23.3915H31.1936M31.0935 23.3916C31.0931 22.8852 30.9111 22.3958 30.5807 22.0121C30.2618 21.6419 29.825 21.3938 29.3449 21.309M31.1936 23.3915C31.1931 22.8612 31.0025 22.3487 30.6564 21.9469C30.3104 21.5451 29.8317 21.2806 29.3074 21.2015M29.3074 21.2015L29.3821 21.268C29.3698 21.2818 29.3574 21.2955 29.3449 21.309M29.3074 21.2015L29.2925 21.3004C29.31 21.303 29.3275 21.3059 29.3449 21.309M7.90645 23.3918V25.5055H14.0685V23.0189V23.0187H14.1685C14.1678 22.4836 14.2942 21.9559 14.5373 21.4792L7.90645 23.3918ZM7.90645 23.3918C7.90978 22.873 8.10237 22.3733 8.44807 21.9864C8.7824 21.6122 9.23769 21.3686 9.73327 21.2974C9.98453 21.5715 10.2888 21.7922 10.6279 21.9458C10.9832 22.1069 11.3687 22.1906 11.7589 22.1916C12.149 22.1926 12.5349 22.1108 12.8911 21.9516C13.2304 21.7999 13.5354 21.5812 13.7879 21.3089C14.0036 21.3468 14.212 21.4181 14.4056 21.5203L7.90645 23.3918ZM17.262 20.5502C17.5437 20.8652 17.8875 21.119 18.272 21.2955C18.6726 21.4794 19.1081 21.5751 19.5489 21.5762C19.9897 21.5772 20.4256 21.4836 20.8271 21.3016C21.2119 21.1271 21.5564 20.8755 21.8395 20.5624C22.4142 20.6544 22.9393 20.945 23.3226 21.3846C23.7175 21.8375 23.9353 22.4179 23.9359 23.0188V26.8343H15.075V23.019C15.0789 22.4037 15.3092 21.8113 15.7219 21.3549C16.1232 20.9111 16.6696 20.626 17.262 20.5502Z" stroke="white" stroke-opacity="0.5" stroke-width="0.2"/>
<path d="M30.0077 17.5762V16.4131C30.0077 15.6893 29.7201 14.9951 29.2083 14.4832C28.6964 13.9714 28.0022 13.6838 27.2784 13.6838C26.5545 13.6838 25.8603 13.9714 25.3485 14.4832C24.8366 14.9951 24.5491 15.6893 24.5491 16.4131V17.5762C24.5491 18.3001 24.8366 18.9943 25.3485 19.5062C25.8603 20.018 26.5545 20.3055 27.2784 20.3055C28.0022 20.3055 28.6964 20.018 29.2083 19.5062C29.7201 18.9943 30.0077 18.3001 30.0077 17.5762ZM25.3555 17.5762V16.4131C25.3555 15.9032 25.5581 15.4141 25.9187 15.0535C26.2793 14.6929 26.7684 14.4903 27.2784 14.4903C27.7883 14.4903 28.2774 14.6929 28.638 15.0535C28.9986 15.4141 29.2012 15.9032 29.2012 16.4131V17.5762C29.2012 18.0862 28.9986 18.5753 28.638 18.9359C28.2774 19.2965 27.7883 19.4991 27.2784 19.4991C26.7684 19.4991 26.2793 19.2965 25.9187 18.9359C25.5581 18.5753 25.3555 18.0862 25.3555 17.5762Z" fill="white" fill-opacity="0.5"/>
<path d="M30.1077 17.5762V16.4131C30.1077 15.6628 29.8096 14.9431 29.279 14.4125C28.7484 13.8819 28.0288 13.5838 27.2784 13.5838C26.528 13.5838 25.8084 13.8819 25.2778 14.4125C24.7472 14.9431 24.4491 15.6628 24.4491 16.4131V17.5762C24.4491 18.3266 24.7472 19.0463 25.2778 19.5769C25.8084 20.1075 26.528 20.4055 27.2784 20.4055C28.0288 20.4055 28.7484 20.1075 29.279 19.5769C29.8096 19.0463 30.1077 18.3266 30.1077 17.5762ZM25.4555 17.5762V16.4131C25.4555 15.9297 25.6476 15.466 25.9894 15.1242C26.3313 14.7823 26.7949 14.5903 27.2784 14.5903C27.7618 14.5903 28.2255 14.7823 28.5673 15.1242C28.9092 15.466 29.1012 15.9297 29.1012 16.4131V17.5762C29.1012 18.0597 28.9092 18.5233 28.5673 18.8652C28.2255 19.207 27.7618 19.3991 27.2784 19.3991C26.7949 19.3991 26.3313 19.207 25.9894 18.8652C25.6476 18.5233 25.4555 18.0597 25.4555 17.5762Z" stroke="white" stroke-opacity="0.5" stroke-width="0.2"/>
<path d="M14.4509 17.5762V16.4131C14.4509 16.0547 14.3803 15.6998 14.2432 15.3687C14.106 15.0375 13.905 14.7367 13.6515 14.4832C13.3981 14.2298 13.0972 14.0288 12.7661 13.8916C12.435 13.7544 12.0801 13.6838 11.7216 13.6838C11.3632 13.6838 11.0083 13.7544 10.6772 13.8916C10.346 14.0288 10.0452 14.2298 9.79173 14.4832C9.53829 14.7367 9.33726 15.0375 9.2001 15.3687C9.06294 15.6998 8.99234 16.0547 8.99234 16.4131V17.5762C8.99234 17.9347 9.06294 18.2896 9.2001 18.6207C9.33726 18.9518 9.53829 19.2527 9.79173 19.5062C10.0452 19.7596 10.346 19.9606 10.6772 20.0978C11.0083 20.235 11.3632 20.3055 11.7216 20.3055C12.0801 20.3055 12.435 20.235 12.7661 20.0978C13.0972 19.9606 13.3981 19.7596 13.6515 19.5062C13.905 19.2527 14.106 18.9518 14.2432 18.6207C14.3803 18.2896 14.4509 17.9347 14.4509 17.5762ZM9.79879 17.5762V16.4131C9.79879 15.9032 10.0014 15.4141 10.362 15.0535C10.7226 14.6929 11.2117 14.4903 11.7216 14.4903C12.2316 14.4903 12.7207 14.6929 13.0813 15.0535C13.4419 15.4141 13.6445 15.9032 13.6445 16.4131V17.5762C13.6445 17.8288 13.5948 18.0788 13.4981 18.3121C13.4015 18.5454 13.2599 18.7574 13.0813 18.9359C12.9027 19.1145 12.6908 19.2561 12.4575 19.3527C12.2242 19.4494 11.9742 19.4991 11.7216 19.4991C11.4691 19.4991 11.2191 19.4494 10.9858 19.3527C10.7525 19.2561 10.5405 19.1145 10.362 18.9359C10.1834 18.7574 10.0418 18.5454 9.94516 18.3121C9.84853 18.0788 9.79879 17.8288 9.79879 17.5762Z" fill="white" fill-opacity="0.5"/>
<path d="M14.5509 17.5762V16.4131C14.5509 16.0416 14.4778 15.6737 14.3356 15.3304C14.1934 14.9871 13.985 14.6752 13.7223 14.4125C13.4595 14.1498 13.1476 13.9414 12.8044 13.7992C12.4611 13.657 12.0932 13.5838 11.7216 13.5838C11.3501 13.5838 10.9822 13.657 10.6389 13.7992C10.2956 13.9414 9.98375 14.1498 9.72102 14.4125C9.4583 14.6752 9.24989 14.9871 9.10771 15.3304C8.96552 15.6737 8.89234 16.0416 8.89234 16.4131V17.5762C8.89234 17.9478 8.96552 18.3157 9.10771 18.659C9.24989 19.0022 9.4583 19.3141 9.72102 19.5769C9.98375 19.8396 10.2956 20.048 10.6389 20.1902C10.9822 20.3324 11.3501 20.4055 11.7216 20.4055C12.0932 20.4055 12.4611 20.3324 12.8044 20.1902C13.1476 20.048 13.4595 19.8396 13.7223 19.5769C13.985 19.3141 14.1934 19.0022 14.3356 18.659C14.4778 18.3157 14.5509 17.9478 14.5509 17.5762ZM9.89879 17.5762V16.4131C9.89879 15.9297 10.0908 15.466 10.4327 15.1242C10.7745 14.7823 11.2382 14.5903 11.7216 14.5903C12.2051 14.5903 12.6687 14.7823 13.0106 15.1242C13.3524 15.466 13.5445 15.9297 13.5445 16.4131V17.5762C13.5445 17.8156 13.4973 18.0527 13.4057 18.2738C13.3141 18.495 13.1799 18.6959 13.0106 18.8652C12.8413 19.0345 12.6404 19.1687 12.4192 19.2603C12.1981 19.3519 11.961 19.3991 11.7216 19.3991C11.4823 19.3991 11.2452 19.3519 11.0241 19.2603C10.8029 19.1687 10.602 19.0345 10.4327 18.8652C10.2634 18.6959 10.1292 18.495 10.0375 18.2738C9.94594 18.0527 9.89879 17.8156 9.89879 17.5762Z" stroke="white" stroke-opacity="0.5" stroke-width="0.2"/>
</svg>
