<svg width="58" height="58" viewBox="0 0 58 58" fill="none" xmlns="http://www.w3.org/2000/svg">
<path d="M39.4294 17.9965L39.525 18.0228C41.3185 13.8278 43.4742 11.4916 46.509 9.85282L46.4787 9.75926C42.1214 10.3423 39.9793 13.8727 39.4294 17.9965ZM36.718 18.0073L36.8173 18.0106C37.6428 12.5686 35.1051 9.5606 33.1336 8.63645L33.0764 8.7164C35.4107 11.1417 36.4443 14.6925 36.718 18.0073ZM38.5469 33.223L38.5398 33.2535L38.5642 33.2732C39.6102 34.1162 41.1142 33.9048 42.6812 32.9225C44.2509 31.9386 45.9009 30.1727 47.2593 27.868C48.4806 25.8377 49.275 23.7149 49.6074 21.8349C49.9395 19.9568 49.812 18.3127 49.1785 17.2465L49.1182 17.145L49.0872 17.259C48.6022 19.0475 47.3278 21.9628 43.8941 24.88L43.894 24.88C40.137 28.0873 38.9141 31.6315 38.5469 33.223ZM37.3653 32.5908L37.4253 32.6857L37.4557 32.5776C37.7289 31.6062 38.2147 30.2702 39.0953 28.8126L39.0956 28.8122C39.9764 27.3239 41.2523 25.6834 43.0449 24.1642L43.0452 24.164C46.7102 21.0182 47.69 17.9919 47.9661 16.581L47.9712 16.5549L47.9524 16.5361L47.9219 16.5056L47.9221 16.5054L47.9182 16.5023C46.8872 15.6587 45.3906 15.8706 43.8238 16.8527C42.2541 17.8366 40.5965 19.6024 39.2228 21.9071C38.0015 23.9528 37.2071 26.0985 36.8823 27.9939C36.5579 29.8871 36.7005 31.5395 37.3653 32.5908ZM28.2129 35.6359L28.1945 35.6175L28.169 35.622C26.7518 35.8684 23.8131 36.9755 21.7347 41.7436C20.7017 44.083 19.4268 45.6906 18.1545 46.7206L18.1534 46.7215C16.8804 47.8126 15.6076 48.3581 14.6374 48.6613L14.5427 48.6909L14.6228 48.7494C17.3593 50.7479 21.9546 50.1572 25.529 47.1633L25.529 47.1633C27.5315 45.4818 28.8478 43.3633 29.3494 41.2918C29.851 39.2203 29.5383 37.1923 28.2766 35.6999L28.2768 35.6997L28.2738 35.6968L28.2129 35.6359ZM16.4175 36.4553L16.4174 36.4554C14.4149 38.1369 13.0986 40.2554 12.597 42.3307C12.0954 44.4061 12.4082 46.4415 13.6696 47.9491L13.6893 47.9726L13.7192 47.9657C15.315 47.5975 18.7419 46.2488 20.8515 41.3571C22.795 36.8931 25.4943 35.4105 27.2473 34.8967L27.3471 34.8674L27.2619 34.8078C24.4951 32.8711 19.9613 33.492 16.4175 36.4553ZM20.105 4.88487H20.0657L20.0565 4.92307C19.5349 7.0707 19.2338 11.9013 24.7293 17.7632C27.4047 20.621 28.8629 23.4472 29.5917 25.9374C30.3206 28.4277 30.3206 30.5533 30.1687 32.1023L30.1592 32.1998L30.2437 32.1503C34.7489 29.5146 36.6976 22.6623 34.6835 15.7654L34.6355 15.7794L34.6835 15.7654C33.5537 11.9027 31.3699 8.74793 28.7522 6.7722C26.1362 4.79779 23.0837 3.99903 20.2184 4.85477C20.2067 4.85573 20.1953 4.85843 20.1861 4.86093C20.1743 4.86416 20.1617 4.86834 20.1508 4.87199L20.1502 4.87221C20.1384 4.87612 20.1284 4.87946 20.1195 4.88188C20.1152 4.88306 20.1117 4.88386 20.1089 4.88435C20.1061 4.88486 20.1049 4.88487 20.105 4.88487ZM34.4035 47.5602L34.4099 47.5964L34.4464 47.6011C35.5509 47.7411 36.7082 47.134 37.6883 46.0505C38.6696 44.9657 39.4804 43.3965 39.8933 41.592C40.2603 40.0168 40.2532 38.5236 39.9463 37.3191C39.6397 36.1155 39.0317 35.1937 38.1915 34.7736L38.1079 34.7318L38.1195 34.8245C38.2702 36.0302 38.1213 38.12 36.2087 40.9434C34.0983 44.0326 34.2188 46.5137 34.4035 47.5602ZM36.8165 34.5933L36.8072 34.555H36.7679H36.7405C35.6369 34.4166 34.4808 35.0314 33.5017 36.1175C32.5206 37.206 31.7098 38.7751 31.2969 40.5644C30.9298 42.155 30.9445 43.6636 31.263 44.8683C31.5811 46.0718 32.2048 46.9796 33.0619 47.3536L33.1441 47.3895L33.1314 47.3007C33.041 46.6675 33.0406 45.7295 33.3134 44.5777C33.5862 43.4258 34.1017 42.091 35.1034 40.6036C37.1517 37.6075 37.0332 35.4913 36.8165 34.5933ZM13.9646 22.0078L13.9647 22.0079C15.1097 25.8857 17.3011 29.048 19.9226 31.0238C22.5421 32.9979 25.5941 33.7891 28.4591 32.9187H28.4592H28.4593H28.4595H28.4596H28.4598H28.4599H28.4601H28.4602H28.4603H28.4605H28.4606H28.4608H28.4609H28.461H28.4612H28.4613H28.4615H28.4616H28.4617H28.4619H28.462H28.4621H28.4623H28.4624H28.4625H28.4627H28.4628H28.4629H28.4631H28.4632H28.4633H28.4635H28.4636H28.4637H28.4638H28.464H28.4641H28.4642H28.4643H28.4645H28.4646H28.4647H28.4648H28.465H28.4651H28.4652H28.4653H28.4654H28.4656H28.4657H28.4658H28.4659H28.466H28.4662H28.4663H28.4664H28.4665H28.4666H28.4667H28.4668H28.467H28.4671H28.4672H28.4673H28.4674H28.4675H28.4676H28.4677H28.4678H28.4679H28.468H28.4682H28.4683H28.4684H28.4685H28.4686H28.4687H28.4688H28.4689H28.469H28.4691H28.4692H28.4693H28.4694H28.4695H28.4696H28.4697H28.4698H28.4699H28.47H28.4701H28.4702H28.4703H28.4704H28.4705H28.4706H28.4706H28.4707H28.4708H28.4709H28.471H28.4711H28.4712H28.4713H28.4714H28.4715H28.4716H28.4716H28.4717H28.4718H28.4719H28.472H28.4721H28.4722H28.4722H28.4723H28.4724H28.4725H28.4726H28.4727H28.4727H28.4728H28.4729H28.473H28.4731H28.4731H28.4732H28.4733H28.4734H28.4735H28.4735H28.4736H28.4737H28.4738H28.4738H28.4739H28.474H28.4741H28.4741H28.4742H28.4743H28.4743H28.4744H28.4745H28.4746H28.4746H28.4747H28.4748H28.4748H28.4749H28.475H28.475H28.4751H28.4752H28.4752H28.4753H28.4754H28.4754H28.4755H28.4756H28.4756H28.4757H28.4758H28.4758H28.4759H28.476H28.476H28.4761H28.4761H28.4762H28.4763H28.4763H28.4764H28.4764H28.4765H28.4765H28.4766H28.4767H28.4767H28.4768H28.4768H28.4769H28.4769H28.477H28.4771H28.4771H28.4772H28.4772H28.4773H28.4773H28.4774H28.4774H28.4775H28.4775H28.4776H28.4776H28.4777H28.4777H28.4778H28.4778H28.4779H28.4779H28.478H28.478H28.4781H28.4781H28.4782H28.4782H28.4782H28.4783H28.4783H28.4784H28.4784H28.4785H28.4785H28.4786H28.4786H28.4786H28.4787H28.4787H28.4788H28.4788H28.4788H28.4789H28.4789H28.479H28.479H28.479H28.4791H28.4791H28.4792H28.4792H28.4792H28.4793H28.4793H28.4793H28.4794H28.4794H28.4795H28.4795H28.4795H28.4796H28.4796H28.4796H28.4797H28.4797H28.4797H28.4798H28.4798H28.4798H28.4799H28.4799H28.4799H28.4799H28.48H28.48H28.48H28.4801H28.4801H28.4801H28.4802H28.4802H28.4802H28.4803H28.4803H28.4804H28.4804H28.4805H28.4805H28.4806H28.4806H28.4807H28.4807H28.4808H28.4808H28.4809H28.4809H28.4809H28.481H28.481H28.4811H28.4811H28.4811H28.4812H28.4812H28.4812H28.4813H28.4813H28.4813H28.4814H28.4814H28.4814H28.4815H28.4815H28.4815H28.4816H28.4816H28.4816H28.4817H28.4817H28.4817H28.4818H28.4818H28.4818H28.4819H28.4819H28.4819H28.482H28.482H28.482H28.482H28.4821H28.4821H28.4821H28.5237L28.5313 32.8778C28.9904 30.3986 29.2021 24.7457 23.5837 18.7609C18.446 13.2888 17.9937 8.52127 18.3574 5.73336L18.371 5.62906L18.2815 5.68436C13.869 8.41151 11.9503 15.1714 13.9646 22.0078ZM57.95 29C57.95 44.9955 44.9955 57.95 29 57.95C13.0045 57.95 0.05 44.9955 0.05 29C0.05 13.0045 13.0045 0.05 29 0.05C44.9955 0.05 57.95 13.0045 57.95 29Z" fill="white" stroke="#087A14" stroke-width="0.1"/>
</svg>
