<svg width="257" height="228" viewBox="0 0 257 228" fill="none" xmlns="http://www.w3.org/2000/svg">
<path d="M80.0948 0H0V71.25H80.0948V0ZM64.0759 57H16.019V14.25H64.0759V57Z" fill="black"/>
<path d="M48.0568 28.5H32.0378V42.75H48.0568V28.5Z" fill="black"/>
<path d="M176.208 0V71.25H256.303V0H176.208ZM240.284 57H192.227V14.25H240.284V57Z" fill="black"/>
<path d="M224.266 28.5H208.247V42.75H224.266V28.5Z" fill="black"/>
<path d="M0 228H80.0948V156.75H0V228ZM16.019 171H64.0759V213.75H16.019V171Z" fill="black"/>
<path d="M48.0568 185.25H32.0378V199.5H48.0568V185.25Z" fill="black"/>
<path d="M160.19 0H128.152V14.25H160.19V0Z" fill="black"/>
<path d="M128.152 57H144.171V42.75H160.19V28.5H112.133V14.25H96.1138V28.5V35.625V42.75H128.152V57Z" fill="black"/>
<path d="M112.133 57H96.1138V71.25H112.133V57Z" fill="black"/>
<path d="M160.19 71.25H144.171V85.5H96.1138V99.75H160.19V71.25Z" fill="black"/>
<path d="M16.019 128.25H32.0379V114H16.019V85.5H0V142.5H16.019V128.25Z" fill="black"/>
<path d="M48.0568 85.5H32.0378V99.75H48.0568V85.5Z" fill="black"/>
<path d="M96.1138 142.5H128.152V128.25H112.133V114H80.0948V85.5H64.0759V114H48.0569V142.5H64.0759V128.25H72.0853H80.0948H96.1138V142.5Z" fill="black"/>
<path d="M160.19 114H144.171V142.5H160.19V114Z" fill="black"/>
<path d="M144.171 156.75H96.1138V171H128.152V213.75H96.1138V228H144.171V213.75H176.209V199.5H144.171V156.75Z" fill="black"/>
<path d="M112.133 185.25H96.1138V199.5H112.133V185.25Z" fill="black"/>
<path d="M176.209 156.75H160.19V185.25H176.209V156.75Z" fill="black"/>
<path d="M240.284 185.25H192.228V228H208.247V199.5H240.284V185.25Z" fill="black"/>
<path d="M256.303 213.75H224.265V228H256.303V213.75Z" fill="black"/>
<path d="M256.303 156.75H240.284V171H256.303V156.75Z" fill="black"/>
<path d="M192.227 171H208.246V128.25H176.208V142.5H192.227V171Z" fill="black"/>
<path d="M224.265 99.75H208.246V85.5H192.227V99.75H176.208V114H240.284V99.75H256.303V85.5H224.265V99.75Z" fill="black"/>
<path d="M256.303 128.25H224.265V142.5H256.303V128.25Z" fill="black"/>
</svg>
