<svg width="22" height="19" viewBox="0 0 22 19" fill="none" xmlns="http://www.w3.org/2000/svg">
<path d="M6.59248 11.019C7.19341 11.019 7.77425 10.9802 8.3239 10.908V4.88335C7.77431 4.81115 7.19341 4.77234 6.59248 4.77234C3.16133 4.77234 0.379822 6.03387 0.379822 7.59011V8.2012C0.379822 9.75739 3.16133 11.019 6.59248 11.019Z" fill="#FFD600"/>
<path d="M6.59248 14.1649C7.19341 14.1649 7.77425 14.126 8.3239 14.0539V12.288C7.77415 12.3602 7.19357 12.3995 6.59248 12.3995C3.59746 12.3995 1.09767 11.4382 0.510485 10.1589C0.424973 10.3452 0.379822 10.5382 0.379822 10.736V11.3471C0.379822 12.9033 3.16133 14.1649 6.59248 14.1649Z" fill="#FFD600"/>
<path d="M8.32384 15.5711V15.4339C7.77409 15.5061 7.1935 15.5454 6.59242 15.5454C3.5974 15.5454 1.09761 14.5841 0.510424 13.3047C0.424912 13.4911 0.379761 13.684 0.379761 13.8818V14.4929C0.379761 16.0492 3.16127 17.3107 6.59242 17.3107C7.27859 17.3107 7.93856 17.2602 8.55572 17.167C8.40275 16.8541 8.32384 16.524 8.32384 16.1822V15.5711Z" fill="#FFD600"/>
<path d="M15.5503 0C12.1192 0 9.33765 1.26153 9.33765 2.81777V3.42886C9.33765 4.9851 12.1192 6.24663 15.5503 6.24663C18.9814 6.24663 21.763 4.9851 21.763 3.42886V2.81777C21.763 1.26153 18.9814 0 15.5503 0Z" fill="#FFD600"/>
<path d="M15.5503 7.62719C12.5553 7.62719 10.0555 6.66596 9.46831 5.38654C9.3828 5.57284 9.33765 5.7658 9.33765 5.96366V6.57475C9.33765 8.13099 12.1192 9.39252 15.5503 9.39252C18.9814 9.39252 21.763 8.13099 21.763 6.57475V5.96366C21.763 5.7658 21.7178 5.57284 21.6323 5.38654C21.0451 6.66596 18.5453 7.62719 15.5503 7.62719Z" fill="#FFD600"/>
<path d="M15.5503 10.7731C12.5553 10.7731 10.0555 9.81184 9.46831 8.53247C9.3828 8.71877 9.33765 8.91173 9.33765 9.10959V9.72068C9.33765 11.277 12.1192 12.5385 15.5503 12.5385C18.9814 12.5385 21.763 11.277 21.763 9.72068V9.10959C21.763 8.91173 21.7178 8.71877 21.6323 8.53247C21.0451 9.81189 18.5453 10.7731 15.5503 10.7731Z" fill="#FFD600"/>
<path d="M15.5503 14.0888C12.5553 14.0888 10.0555 13.1275 9.46831 11.8481C9.3828 12.0345 9.33765 12.2274 9.33765 12.4252V13.0364C9.33765 14.5926 12.1192 15.8541 15.5503 15.8541C18.9814 15.8541 21.763 14.5926 21.763 13.0364V12.4252C21.763 12.2274 21.7178 12.0344 21.6323 11.8481C21.0451 13.1275 18.5453 14.0888 15.5503 14.0888Z" fill="#FFD600"/>
<path d="M15.5503 17.2347C12.5553 17.2347 10.0555 16.2734 9.46831 14.9941C9.3828 15.1804 9.33765 15.3734 9.33765 15.5711V16.1822C9.33765 17.7385 12.1192 19 15.5503 19C18.9814 19 21.763 17.7385 21.763 16.1822V15.5711C21.763 15.3733 21.7178 15.1803 21.6323 14.994C21.0451 16.2734 18.5453 17.2347 15.5503 17.2347Z" fill="#FFD600"/>
</svg>
