<svg width="40" height="40" viewBox="0 0 40 40" fill="none" xmlns="http://www.w3.org/2000/svg">
<path d="M30.1186 20.2427C29.9322 20.2427 29.781 20.3938 29.781 20.5803V29.703C29.781 30.0459 29.5021 30.3249 29.1592 30.3249H21.2094C20.8665 30.3249 20.5876 30.0459 20.5876 29.703V28.8058C20.5876 28.6194 20.4364 28.4682 20.25 28.4682C20.0635 28.4682 19.9124 28.6194 19.9124 28.8058V29.703C19.9124 29.9282 19.9702 30.1401 20.0715 30.3249H9.78771C9.72567 30.3249 9.67518 30.2744 9.67518 30.2123V22.0681C9.67518 21.8816 9.52401 21.7305 9.33759 21.7305C9.15116 21.7305 9 21.8816 9 22.0681V30.2124C9 30.6467 9.35336 31 9.78766 31H29.1591C29.8743 31 30.4561 30.4182 30.4561 29.703V20.5803C30.4562 20.3938 30.3051 20.2427 30.1186 20.2427Z" fill="white" fill-opacity="0.5"/>
<path d="M30.1186 20.1427C29.877 20.1427 29.681 20.3386 29.681 20.5803V29.703C29.681 29.9907 29.4469 30.2249 29.1592 30.2249H21.2094C20.9217 30.2249 20.6876 29.9907 20.6876 29.703V28.8058C20.6876 28.5642 20.4916 28.3682 20.25 28.3682C20.0083 28.3682 19.8124 28.5642 19.8124 28.8058V29.703C19.8124 29.8874 19.8483 30.0635 19.9136 30.2249H9.78771C9.7809 30.2249 9.77518 30.2191 9.77518 30.2123V22.0681C9.77518 21.8264 9.57924 21.6305 9.33759 21.6305C9.09594 21.6305 8.9 21.8264 8.9 22.0681V30.2124C8.9 30.7019 9.29813 31.1 9.78766 31.1H29.1591C29.9295 31.1 30.5561 30.4734 30.5561 29.703V20.5803C30.5562 20.3386 30.3603 20.1427 30.1186 20.1427Z" stroke="white" stroke-opacity="0.5" stroke-width="0.2"/>
<path d="M29.1593 15.2496H25.8961V12.5207C25.8962 12.432 25.8598 12.3445 25.7972 12.2819L21.6142 8.09892C21.5516 8.03625 21.4641 7.99982 21.3754 8H9.78784C9.35354 8 9.00018 8.35336 9.00018 8.78766V20.7177C9.00018 20.9042 9.15135 21.0553 9.33777 21.0553C9.5242 21.0553 9.67536 20.9042 9.67536 20.7177V8.78766C9.67536 8.72562 9.72585 8.67513 9.78789 8.67513H21.0379V11.6204C21.0379 12.3029 21.5931 12.8582 22.2756 12.8582H25.2209V15.2495H21.2095C20.4944 15.2495 19.9126 15.8314 19.9126 16.5465V16.5994H14.5633C14.3768 16.5994 14.2257 16.7505 14.2257 16.9369C14.2257 17.1234 14.3768 17.2745 14.5633 17.2745H19.9126V19.5675H14.5633C14.3768 19.5675 14.2257 19.7187 14.2257 19.9051C14.2257 20.0915 14.3768 20.2427 14.5633 20.2427H19.9126V22.5357H14.5633C14.3768 22.5357 14.2257 22.6869 14.2257 22.8733C14.2257 23.0597 14.3768 23.2109 14.5633 23.2109H19.9126V25.5039H14.5633C14.3768 25.5039 14.2257 25.655 14.2257 25.8415C14.2257 26.028 14.3768 26.1791 14.5633 26.1791H19.9126V27.4556C19.9126 27.642 20.0637 27.7932 20.2502 27.7932C20.4366 27.7932 20.5877 27.642 20.5877 27.4556V16.5465C20.5877 16.2036 20.8667 15.9247 21.2095 15.9247H29.1594C29.5023 15.9247 29.7812 16.2037 29.7812 16.5465V19.2299C29.7812 19.4164 29.9324 19.5675 30.1188 19.5675C30.3052 19.5675 30.4564 19.4164 30.4564 19.2299V16.5465C30.4563 15.8314 29.8745 15.2496 29.1593 15.2496ZM21.713 11.6204V9.15256L24.7435 12.1831H22.2756C21.9654 12.1831 21.713 11.9307 21.713 11.6204Z" fill="white" fill-opacity="0.5"/>
<path d="M25.9961 15.1496H29.1593C29.9297 15.1496 30.5563 15.7762 30.5564 16.5465V19.2299C30.5564 19.4716 30.3605 19.6675 30.1188 19.6675C29.8772 19.6675 29.6812 19.4716 29.6812 19.2299V16.5465C29.6812 16.2589 29.447 16.0247 29.1594 16.0247H21.2095C20.9219 16.0247 20.6877 16.2589 20.6877 16.5465V27.4556C20.6877 27.6972 20.4919 27.8932 20.2502 27.8932C20.0084 27.8932 19.8126 27.6972 19.8126 27.4556V26.2791H14.5633C14.3216 26.2791 14.1257 26.0832 14.1257 25.8415C14.1257 25.5998 14.3216 25.4039 14.5633 25.4039H19.8126V23.3109H14.5633C14.3216 23.3109 14.1257 23.1149 14.1257 22.8733C14.1257 22.6316 14.3216 22.4357 14.5633 22.4357H19.8126V20.3427H14.5633C14.3216 20.3427 14.1257 20.1468 14.1257 19.9051C14.1257 19.6635 14.3216 19.4675 14.5633 19.4675H19.8126V17.3745H14.5633C14.3216 17.3745 14.1257 17.1786 14.1257 16.9369C14.1257 16.6952 14.3216 16.4994 14.5633 16.4994H19.8133C19.8383 15.7507 20.455 15.1495 21.2095 15.1495H25.1209V12.9582H22.2756C21.5379 12.9582 20.9379 12.3582 20.9379 11.6204V8.77513H9.78789C9.78108 8.77513 9.77536 8.78085 9.77536 8.78766V20.7177C9.77536 20.9594 9.57943 21.1553 9.33777 21.1553C9.09612 21.1553 8.90018 20.9594 8.90018 20.7177V8.78766C8.90018 8.29813 9.29831 7.9 9.78784 7.9H21.3753H21.3754V8C21.4641 7.99982 21.5516 8.03625 21.6142 8.09892L25.9961 15.1496ZM25.9961 15.1496V12.5209V12.5207V15.1496ZM25.8678 12.2111L21.6849 8.02826L25.8678 12.2111ZM21.813 11.6204V9.39398L24.5021 12.0831H22.2756C22.0206 12.0831 21.813 11.8755 21.813 11.6204Z" stroke="white" stroke-opacity="0.5" stroke-width="0.2"/>
<path d="M28.8039 17.5938C28.8039 17.1595 28.4505 16.8062 28.0162 16.8062H22.4112C21.9769 16.8062 21.6235 17.1595 21.6235 17.5938V19.4998C21.6235 19.9342 21.9769 20.2875 22.4112 20.2875H28.0162C28.4505 20.2875 28.8039 19.9342 28.8039 19.4998V17.5938ZM28.1287 19.4998C28.1287 19.5618 28.0782 19.6123 28.0162 19.6123H22.4112C22.3492 19.6123 22.2987 19.5618 22.2987 19.4998V17.5938C22.2987 17.5317 22.3492 17.4812 22.4112 17.4812H28.0162C28.0782 17.4812 28.1287 17.5317 28.1287 17.5938V19.4998Z" fill="white" fill-opacity="0.5"/>
<path d="M28.9039 17.5938C28.9039 17.1043 28.5057 16.7062 28.0162 16.7062H22.4112C21.9217 16.7062 21.5235 17.1043 21.5235 17.5938V19.4998C21.5235 19.9894 21.9217 20.3875 22.4112 20.3875H28.0162C28.5057 20.3875 28.9039 19.9894 28.9039 19.4998V17.5938ZM28.0287 19.4998C28.0287 19.5066 28.023 19.5123 28.0162 19.5123H22.4112C22.4044 19.5123 22.3987 19.5066 22.3987 19.4998V17.5938C22.3987 17.587 22.4044 17.5812 22.4112 17.5812H28.0162C28.023 17.5812 28.0287 17.587 28.0287 17.5938V19.4998Z" stroke="white" stroke-opacity="0.5" stroke-width="0.2"/>
<path d="M21.6235 23.0598C21.6235 23.4754 21.9617 23.8135 22.3772 23.8135H23.02C23.4356 23.8135 23.7737 23.4754 23.7737 23.0598V22.417C23.7737 22.0014 23.4356 21.6633 23.02 21.6633H22.3772C21.9617 21.6633 21.6235 22.0015 21.6235 22.417V23.0598ZM22.2987 22.4171C22.2987 22.3738 22.3339 22.3385 22.3772 22.3385H23.02C23.0633 22.3385 23.0986 22.3738 23.0986 22.4171V23.0599C23.0986 23.1032 23.0633 23.1384 23.02 23.1384H22.3772C22.3339 23.1384 22.2987 23.1032 22.2987 23.0599V22.4171Z" fill="white" fill-opacity="0.5"/>
<path d="M21.5235 23.0598C21.5235 23.5306 21.9064 23.9135 22.3772 23.9135H23.02C23.4908 23.9135 23.8737 23.5306 23.8737 23.0598V22.417C23.8737 21.9462 23.4908 21.5633 23.02 21.5633H22.3772C21.9064 21.5633 21.5235 21.9462 21.5235 22.417V23.0598ZM22.3987 23.0384V22.4385H22.9986V23.0384H22.3987Z" stroke="white" stroke-opacity="0.5" stroke-width="0.2"/>
<path d="M26.2888 22.417C26.2888 22.0014 25.9507 21.6633 25.5351 21.6633H24.8923C24.4767 21.6633 24.1386 22.0015 24.1386 22.417V23.0598C24.1386 23.4754 24.4767 23.8135 24.8923 23.8135H25.5351C25.9507 23.8135 26.2888 23.4754 26.2888 23.0598V22.417ZM25.6136 23.0598C25.6136 23.1031 25.5784 23.1383 25.5351 23.1383H24.8923C24.849 23.1383 24.8137 23.1031 24.8137 23.0598V22.417C24.8137 22.3737 24.849 22.3384 24.8923 22.3384H25.5351C25.5784 22.3384 25.6137 22.3737 25.6137 22.417V23.0598H25.6136Z" fill="white" fill-opacity="0.5"/>
<path d="M25.5137 22.9598H25.5136V23.0383H24.9137V22.4384H25.5137V22.9598ZM26.3888 22.417C26.3888 21.9462 26.0059 21.5633 25.5351 21.5633H24.8923C24.4215 21.5633 24.0386 21.9462 24.0386 22.417V23.0598C24.0386 23.5306 24.4215 23.9135 24.8923 23.9135H25.5351C26.0059 23.9135 26.3888 23.5306 26.3888 23.0598V22.417Z" stroke="white" stroke-opacity="0.5" stroke-width="0.2"/>
<path d="M28.8039 22.417C28.8039 22.0014 28.4657 21.6633 28.0502 21.6633H27.4074C26.9918 21.6633 26.6537 22.0015 26.6537 22.417V23.0598C26.6537 23.4754 26.9918 23.8135 27.4074 23.8135H28.0502C28.4657 23.8135 28.8039 23.4754 28.8039 23.0598V22.417ZM28.1287 23.0598C28.1287 23.1031 28.0935 23.1383 28.0502 23.1383H27.4074C27.3641 23.1383 27.3288 23.1031 27.3288 23.0598V22.417C27.3288 22.3737 27.3641 22.3384 27.4074 22.3384H28.0502C28.0935 22.3384 28.1287 22.3737 28.1287 22.417V23.0598Z" fill="white" fill-opacity="0.5"/>
<path d="M28.9039 22.417C28.9039 21.9462 28.521 21.5633 28.0502 21.5633H27.4074C26.9366 21.5633 26.5537 21.9462 26.5537 22.417V23.0598C26.5537 23.5306 26.9366 23.9135 27.4074 23.9135H28.0502C28.521 23.9135 28.9039 23.5306 28.9039 23.0598V22.417ZM28.0287 22.4384V23.0383H27.4288V22.4384H28.0287Z" stroke="white" stroke-opacity="0.5" stroke-width="0.2"/>
<path d="M21.6235 25.812C21.6235 26.2276 21.9617 26.5657 22.3772 26.5657H23.02C23.4356 26.5657 23.7737 26.2276 23.7737 25.812V25.1692C23.7737 24.7537 23.4356 24.4155 23.02 24.4155H22.3772C21.9617 24.4155 21.6235 24.7536 21.6235 25.1692V25.812ZM22.2987 25.1692C22.2987 25.1259 22.3339 25.0907 22.3772 25.0907H23.02C23.0633 25.0907 23.0986 25.1259 23.0986 25.1692V25.812C23.0986 25.8553 23.0633 25.8906 23.02 25.8906H22.3772C22.3339 25.8906 22.2987 25.8553 22.2987 25.812V25.1692Z" fill="white" fill-opacity="0.5"/>
<path d="M21.5235 25.812C21.5235 26.2828 21.9064 26.6657 22.3772 26.6657H23.02C23.4908 26.6657 23.8737 26.2828 23.8737 25.812V25.1692C23.8737 24.6984 23.4908 24.3155 23.02 24.3155H22.3772C21.9064 24.3155 21.5235 24.6984 21.5235 25.1692V25.812ZM22.3987 25.7906V25.1907H22.9986V25.7906H22.3987Z" stroke="white" stroke-opacity="0.5" stroke-width="0.2"/>
<path d="M26.2888 25.1692C26.2888 24.7537 25.9507 24.4155 25.5351 24.4155H24.8923C24.4767 24.4155 24.1386 24.7536 24.1386 25.1692V25.812C24.1386 26.2276 24.4767 26.5657 24.8923 26.5657H25.5351C25.9507 26.5657 26.2888 26.2276 26.2888 25.812V25.1692ZM25.6136 25.812C25.6136 25.8553 25.5784 25.8906 25.5351 25.8906H24.8923C24.849 25.8906 24.8137 25.8553 24.8137 25.812V25.1692C24.8137 25.1259 24.849 25.0907 24.8923 25.0907H25.5351C25.5784 25.0907 25.6137 25.1259 25.6137 25.1692V25.812H25.6136Z" fill="white" fill-opacity="0.5"/>
<path d="M25.5137 25.712H25.5136V25.7906H24.9137V25.1907H25.5137V25.712ZM26.3888 25.1692C26.3888 24.6984 26.0059 24.3155 25.5351 24.3155H24.8923C24.4215 24.3155 24.0386 24.6984 24.0386 25.1692V25.812C24.0386 26.2828 24.4215 26.6657 24.8923 26.6657H25.5351C26.0059 26.6657 26.3888 26.2828 26.3888 25.812V25.1692Z" stroke="white" stroke-opacity="0.5" stroke-width="0.2"/>
<path d="M21.6235 28.5645C21.6235 28.98 21.9617 29.3182 22.3772 29.3182H23.02C23.4356 29.3182 23.7737 28.98 23.7737 28.5645V27.9217C23.7737 27.5061 23.4356 27.168 23.02 27.168H22.3772C21.9617 27.168 21.6235 27.5061 21.6235 27.9217V28.5645ZM22.2987 27.9217C22.2987 27.8784 22.3339 27.8431 22.3772 27.8431H23.02C23.0633 27.8431 23.0986 27.8784 23.0986 27.9217V28.5645C23.0986 28.6078 23.0633 28.6431 23.02 28.6431H22.3772C22.3339 28.6431 22.2987 28.6078 22.2987 28.5645V27.9217Z" fill="white" fill-opacity="0.5"/>
<path d="M21.5235 28.5645C21.5235 29.0353 21.9064 29.4182 22.3772 29.4182H23.02C23.4908 29.4182 23.8737 29.0353 23.8737 28.5645V27.9217C23.8737 27.4509 23.4908 27.068 23.02 27.068H22.3772C21.9064 27.068 21.5235 27.4508 21.5235 27.9217V28.5645ZM22.3987 28.5431V27.9431H22.9986V28.5431H22.3987Z" stroke="white" stroke-opacity="0.5" stroke-width="0.2"/>
<path d="M25.5351 27.168H24.8923C24.4767 27.168 24.1386 27.5061 24.1386 27.9217V28.5645C24.1386 28.98 24.4767 29.3182 24.8923 29.3182H25.5351C25.9507 29.3182 26.2888 28.98 26.2888 28.5645V27.9217C26.2888 27.5061 25.9507 27.168 25.5351 27.168ZM25.6136 28.5644C25.6136 28.6077 25.5784 28.643 25.5351 28.643H24.8923C24.849 28.643 24.8137 28.6077 24.8137 28.5644V27.9216C24.8137 27.8783 24.849 27.8431 24.8923 27.8431H25.5351C25.5784 27.8431 25.6137 27.8783 25.6137 27.9216V28.5644H25.6136Z" fill="white" fill-opacity="0.5"/>
<path d="M25.5137 28.4644H25.5136V28.543H24.9137V27.9431H25.5137V28.4644ZM25.5351 27.068H24.8923C24.4215 27.068 24.0386 27.4508 24.0386 27.9217V28.5645C24.0386 29.0353 24.4215 29.4182 24.8923 29.4182H25.5351C26.0059 29.4182 26.3888 29.0353 26.3888 28.5645V27.9217C26.3888 27.4508 26.0059 27.068 25.5351 27.068Z" stroke="white" stroke-opacity="0.5" stroke-width="0.2"/>
<path d="M27.9864 24.4155H27.4711C27.0204 24.4155 26.6537 24.7822 26.6537 25.233V28.5007C26.6537 28.9514 27.0204 29.3181 27.4711 29.3181H27.9864C28.4372 29.3181 28.8039 28.9514 28.8039 28.5007V25.233C28.8039 24.7822 28.4372 24.4155 27.9864 24.4155ZM28.1287 28.5007C28.1287 28.5792 28.0649 28.643 27.9864 28.643H27.4711C27.3927 28.643 27.3288 28.5792 27.3288 28.5007V25.233C27.3288 25.1545 27.3927 25.0907 27.4711 25.0907H27.9864C28.0649 25.0907 28.1287 25.1545 28.1287 25.233V28.5007Z" fill="white" fill-opacity="0.5"/>
<path d="M27.9864 24.3155H27.4711C26.9652 24.3155 26.5537 24.727 26.5537 25.233V28.5007C26.5537 29.0067 26.9652 29.4181 27.4711 29.4181H27.9864C28.4924 29.4181 28.9039 29.0067 28.9039 28.5007V25.233C28.9039 24.727 28.4924 24.3155 27.9864 24.3155ZM28.0287 28.5007C28.0287 28.5239 28.0097 28.543 27.9864 28.543H27.4711C27.4479 28.543 27.4288 28.5239 27.4288 28.5007V25.233C27.4288 25.2098 27.4478 25.1907 27.4711 25.1907H27.9864C28.0097 25.1907 28.0287 25.2098 28.0287 25.233V28.5007Z" stroke="white" stroke-opacity="0.5" stroke-width="0.2"/>
<path d="M11.6964 14.3063H13.0439C13.2304 14.3063 13.3815 14.1552 13.3815 13.9687C13.3815 13.7823 13.2304 13.6311 13.0439 13.6311H11.6964C11.51 13.6311 11.3588 13.7823 11.3588 13.9687C11.3588 14.1551 11.51 14.3063 11.6964 14.3063Z" fill="white" fill-opacity="0.5"/>
<path d="M11.6964 14.4063H13.0439C13.2856 14.4063 13.4815 14.2104 13.4815 13.9687C13.4815 13.727 13.2856 13.5311 13.0439 13.5311H11.6964C11.4548 13.5311 11.2588 13.727 11.2588 13.9687C11.2588 14.2103 11.4548 14.4063 11.6964 14.4063Z" stroke="white" stroke-opacity="0.5" stroke-width="0.2"/>
<path d="M14.5631 14.3063H21.0601C21.2465 14.3063 21.3977 14.1552 21.3977 13.9687C21.3977 13.7823 21.2465 13.6311 21.0601 13.6311H14.5631C14.3766 13.6311 14.2255 13.7823 14.2255 13.9687C14.2255 14.1551 14.3766 14.3063 14.5631 14.3063Z" fill="white" fill-opacity="0.5"/>
<path d="M14.1255 13.9687V13.9687C14.1255 14.2103 14.3214 14.4063 14.5631 14.4063H21.0601C21.3018 14.4063 21.4977 14.2104 21.4977 13.9687C21.4977 13.727 21.3018 13.5311 21.0601 13.5311H14.5631C14.3214 13.5311 14.1255 13.727 14.1255 13.9687Z" stroke="white" stroke-opacity="0.5" stroke-width="0.2"/>
<path d="M11.6964 17.2745H13.0439C13.2304 17.2745 13.3815 17.1234 13.3815 16.937C13.3815 16.7505 13.2304 16.5994 13.0439 16.5994H11.6964C11.51 16.5994 11.3588 16.7505 11.3588 16.937C11.3588 17.1234 11.51 17.2745 11.6964 17.2745Z" fill="white" fill-opacity="0.5"/>
<path d="M11.6964 17.3745H13.0439C13.2856 17.3745 13.4815 17.1786 13.4815 16.937C13.4815 16.6953 13.2856 16.4994 13.0439 16.4994H11.6964C11.4548 16.4994 11.2588 16.6952 11.2588 16.937C11.2588 17.1787 11.4548 17.3745 11.6964 17.3745Z" stroke="white" stroke-opacity="0.5" stroke-width="0.2"/>
<path d="M11.6964 20.2426H13.0439C13.2304 20.2426 13.3815 20.0914 13.3815 19.905C13.3815 19.7185 13.2304 19.5674 13.0439 19.5674H11.6964C11.51 19.5674 11.3588 19.7185 11.3588 19.905C11.3588 20.0914 11.51 20.2426 11.6964 20.2426Z" fill="white" fill-opacity="0.5"/>
<path d="M11.6964 20.3426H13.0439C13.2856 20.3426 13.4815 20.1466 13.4815 19.905C13.4815 19.6633 13.2856 19.4674 13.0439 19.4674H11.6964C11.4548 19.4674 11.2588 19.6633 11.2588 19.905C11.2588 20.1466 11.4548 20.3426 11.6964 20.3426Z" stroke="white" stroke-opacity="0.5" stroke-width="0.2"/>
<path d="M11.6964 23.2108H13.0439C13.2304 23.2108 13.3815 23.0597 13.3815 22.8732C13.3815 22.6868 13.2304 22.5356 13.0439 22.5356H11.6964C11.51 22.5356 11.3588 22.6868 11.3588 22.8732C11.3588 23.0597 11.51 23.2108 11.6964 23.2108Z" fill="white" fill-opacity="0.5"/>
<path d="M11.6964 23.3108H13.0439C13.2856 23.3108 13.4815 23.1149 13.4815 22.8732C13.4815 22.6316 13.2856 22.4356 13.0439 22.4356H11.6964C11.4548 22.4356 11.2588 22.6316 11.2588 22.8732C11.2588 23.1149 11.4548 23.3108 11.6964 23.3108Z" stroke="white" stroke-opacity="0.5" stroke-width="0.2"/>
<path d="M11.6964 26.1791H13.0439C13.2304 26.1791 13.3815 26.028 13.3815 25.8415C13.3815 25.655 13.2304 25.5039 13.0439 25.5039H11.6964C11.51 25.5039 11.3588 25.655 11.3588 25.8415C11.3588 26.028 11.51 26.1791 11.6964 26.1791Z" fill="white" fill-opacity="0.5"/>
<path d="M11.6964 26.2791H13.0439C13.2856 26.2791 13.4815 26.0832 13.4815 25.8415C13.4815 25.5998 13.2856 25.4039 13.0439 25.4039H11.6964C11.4548 25.4039 11.2588 25.5998 11.2588 25.8415C11.2588 26.0832 11.4548 26.2791 11.6964 26.2791Z" stroke="white" stroke-opacity="0.5" stroke-width="0.2"/>
<path d="M20 40C14.6578 40 9.63531 37.9197 5.85781 34.1422C2.08031 30.3647 0 25.3422 0 20C0 14.6578 2.08039 9.63539 5.85781 5.85781C9.63523 2.08023 14.6578 0 20 0C25.3422 0 30.3647 2.08031 34.1422 5.85781C37.9197 9.63531 40 14.6578 40 20C40 25.3422 37.9196 30.3646 34.1422 34.1422C30.3648 37.9198 25.3422 40 20 40ZM20 2.5C10.3505 2.5 2.5 10.3505 2.5 20C2.5 29.6495 10.3505 37.5 20 37.5C29.6495 37.5 37.5 29.6495 37.5 20C37.5 10.3505 29.6495 2.5 20 2.5Z" fill="white" fill-opacity="0.5"/>
</svg>
