<svg width="40" height="40" viewBox="0 0 40 40" fill="none" xmlns="http://www.w3.org/2000/svg">
<path d="M34.1422 5.85785C30.3647 2.08038 25.3421 0 20 0C14.6576 0 9.63531 2.08038 5.85785 5.85785C2.08038 9.63531 0 14.6576 0 20C0 25.3421 2.08038 30.3647 5.85785 34.1422C9.63531 37.9196 14.6576 40 20 40C25.3421 40 30.3647 37.9196 34.1422 34.1422C37.9196 30.3647 40 25.3421 40 20C40 14.6576 37.9196 9.63531 34.1422 5.85785ZM10.0266 34.5615C10.863 29.7452 15.0366 26.1926 20 26.1926C24.9637 26.1926 29.137 29.7452 29.9734 34.5615C27.1338 36.5125 23.6981 37.6562 20 37.6562C16.3019 37.6562 12.8662 36.5125 10.0266 34.5615ZM13.6407 17.4896C13.6407 13.9828 16.4935 11.1304 20 11.1304C23.5065 11.1304 26.3593 13.9832 26.3593 17.4896C26.3593 20.9961 23.5065 23.8489 20 23.8489C16.4935 23.8489 13.6407 20.9961 13.6407 17.4896ZM32.0035 32.9358C31.3727 30.6937 30.1199 28.6594 28.364 27.0703C27.2867 26.0953 26.0605 25.3259 24.7421 24.7836C27.1249 23.2294 28.7033 20.5405 28.7033 17.4896C28.7033 12.6907 24.7989 8.78662 20 8.78662C15.2011 8.78662 11.297 12.6907 11.297 17.4896C11.297 20.5405 12.8754 23.2294 15.2579 24.7836C13.9398 25.3259 12.7133 26.095 11.636 27.07C9.88037 28.6591 8.62732 30.6934 7.99652 32.9355C4.52209 29.7089 2.34375 25.1044 2.34375 20C2.34375 10.2643 10.2643 2.34375 20 2.34375C29.7357 2.34375 37.6562 10.2643 37.6562 20C37.6562 25.1047 35.4779 29.7092 32.0035 32.9358Z" fill="white"/>
</svg>
