<svg width="40" height="40" viewBox="0 0 40 40" fill="none" xmlns="http://www.w3.org/2000/svg">
<path d="M16.25 10H10V16.25H16.25V10ZM15 15H11.25V11.25H15V15Z" fill="white"/>
<path d="M13.75 12.5H12.5V13.75H13.75V12.5Z" fill="white"/>
<path d="M23.75 10V16.25H30V10H23.75ZM28.75 15H25V11.25H28.75V15Z" fill="white"/>
<path d="M27.5 12.5H26.25V13.75H27.5V12.5Z" fill="white"/>
<path d="M10 30H16.25V23.75H10V30ZM11.25 25H15V28.75H11.25V25Z" fill="white"/>
<path d="M13.75 26.25H12.5V27.5H13.75V26.25Z" fill="white"/>
<path d="M22.5 10H20V11.25H22.5V10Z" fill="white"/>
<path d="M20 15H21.25V13.75H22.5V12.5H18.75V11.25H17.5V12.5V13.125V13.75H20V15Z" fill="white"/>
<path d="M18.75 15H17.5V16.25H18.75V15Z" fill="white"/>
<path d="M22.5 16.25H21.25V17.5H17.5V18.75H22.5V16.25Z" fill="white"/>
<path d="M11.25 21.25H12.5V20H11.25V17.5H10V22.5H11.25V21.25Z" fill="white"/>
<path d="M13.75 17.5H12.5V18.75H13.75V17.5Z" fill="white"/>
<path d="M17.5 22.5H20V21.25H18.75V20H16.25V17.5H15V20H13.75V22.5H15V21.25H15.625H16.25H17.5V22.5Z" fill="white"/>
<path d="M22.5 20H21.25V22.5H22.5V20Z" fill="white"/>
<path d="M21.25 23.75H17.5V25H20V28.75H17.5V30H21.25V28.75H23.75V27.5H21.25V23.75Z" fill="white"/>
<path d="M18.75 26.25H17.5V27.5H18.75V26.25Z" fill="white"/>
<path d="M23.75 23.75H22.5V26.25H23.75V23.75Z" fill="white"/>
<path d="M28.75 26.25H25V30H26.25V27.5H28.75V26.25Z" fill="white"/>
<path d="M30 28.75H27.5V30H30V28.75Z" fill="white"/>
<path d="M30 23.75H28.75V25H30V23.75Z" fill="white"/>
<path d="M25 25H26.25V21.25H23.75V22.5H25V25Z" fill="white"/>
<path d="M27.5 18.75H26.25V17.5H25V18.75H23.75V20H28.75V18.75H30V17.5H27.5V18.75Z" fill="white"/>
<path d="M30 21.25H27.5V22.5H30V21.25Z" fill="white"/>
<path d="M20 40C14.6578 40 9.63531 37.9197 5.85781 34.1422C2.08031 30.3647 0 25.3422 0 20C0 14.6578 2.08039 9.63539 5.85781 5.85781C9.63523 2.08023 14.6578 0 20 0C25.3422 0 30.3647 2.08031 34.1422 5.85781C37.9197 9.63531 40 14.6578 40 20C40 25.3422 37.9196 30.3646 34.1422 34.1422C30.3648 37.9198 25.3422 40 20 40ZM20 2.5C10.3505 2.5 2.5 10.3505 2.5 20C2.5 29.6495 10.3505 37.5 20 37.5C29.6495 37.5 37.5 29.6495 37.5 20C37.5 10.3505 29.6495 2.5 20 2.5Z" fill="white"/>
</svg>
