<svg width="40" height="40" viewBox="0 0 40 40" fill="none" xmlns="http://www.w3.org/2000/svg">
<path d="M20 40C14.6578 40 9.63531 37.9197 5.85781 34.1422C2.08031 30.3647 0 25.3422 0 20C0 14.6578 2.08039 9.63539 5.85781 5.85781C9.63523 2.08023 14.6578 0 20 0C25.3422 0 30.3647 2.08031 34.1422 5.85781C37.9197 9.63531 40 14.6578 40 20C40 25.3422 37.9196 30.3646 34.1422 34.1422C30.3648 37.9198 25.3422 40 20 40ZM20 2.5C10.3505 2.5 2.5 10.3505 2.5 20C2.5 29.6495 10.3505 37.5 20 37.5C29.6495 37.5 37.5 29.6495 37.5 20C37.5 10.3505 29.6495 2.5 20 2.5Z" fill="white"/>
<path d="M30.4986 30.4075L28.9669 13.4659C28.9251 13.0032 28.5347 12.6488 28.0671 12.6488H24.9085V11.2339C24.9085 8.59699 22.7486 6.45166 20.0937 6.45166C17.439 6.45166 15.2794 8.59699 15.2794 11.2339V12.6488H12.1186C11.6509 12.6488 11.2605 13.0032 11.2187 13.4659L9.68104 30.4742C9.65839 30.7252 9.74296 30.9739 9.91413 31.1599C10.0853 31.3458 10.3273 31.4517 10.5809 31.4517H29.6049C29.6056 31.4517 29.6066 31.4517 29.6073 31.4517C30.1064 31.4517 30.5108 31.0499 30.5108 30.5543C30.5106 30.5044 30.5065 30.4553 30.4986 30.4075ZM17.0863 11.2339C17.0863 9.58656 18.4355 8.24631 20.0939 8.24631C21.7524 8.24631 23.1017 9.58656 23.1017 11.2339V12.6488H17.0863V11.2339ZM11.5692 29.6571L12.9446 14.4435H15.2794V16.0482C15.2794 16.5437 15.6838 16.9455 16.1828 16.9455C16.6819 16.9455 17.0863 16.5437 17.0863 16.0482V14.4435H23.1017V16.0482C23.1017 16.5437 23.506 16.9455 24.0051 16.9455C24.5042 16.9455 24.9086 16.5437 24.9086 16.0482V14.4435H27.2412L28.6166 29.6571H11.5692Z" fill="white"/>
</svg>
