<svg width="150" height="150" viewBox="0 0 150 150" fill="none" xmlns="http://www.w3.org/2000/svg">
<path fill-rule="evenodd" clip-rule="evenodd" d="M204.202 -56.8802C207.038 -78.1513 218.067 -96.271 240.441 -99.2647C224.685 -90.7563 213.498 -78.6239 204.202 -56.8802ZM190.179 -56.8802C188.761 -74.0546 183.403 -92.4895 171.271 -105.095C181.355 -100.368 194.433 -84.9265 190.179 -56.8802ZM199.632 21.9012C201.523 13.708 207.826 -4.56932 227.206 -21.1134C245.011 -36.2395 251.628 -51.3655 254.149 -60.6618C260.609 -49.7899 256.828 -26.9433 244.223 -5.9874C230.2 17.8046 210.189 30.4097 199.632 21.9012ZM193.487 18.4349C186.712 7.72058 190.494 -15.4412 203.099 -36.5546C217.279 -60.3466 237.29 -72.9517 247.689 -64.4433L247.847 -64.2857C246.429 -57.0378 241.387 -41.4391 222.479 -25.2101C213.183 -17.3319 206.565 -8.82353 201.996 -1.10294C197.426 6.46008 194.905 13.3929 193.487 18.4349ZM112.658 66.0189C123.372 41.4391 138.498 35.7668 145.746 34.5063C145.903 34.6639 145.903 34.6639 146.061 34.8214C158.981 50.1051 152.521 76.4181 131.88 93.75C113.445 109.191 89.8109 112.185 75.7878 101.943C80.8298 100.368 87.4475 97.5315 94.0651 91.8593C100.683 86.5021 107.3 78.1513 112.658 66.0189ZM85.084 38.7605C103.361 23.4769 126.681 20.3256 140.861 30.2521C131.723 32.9307 117.7 40.6513 107.616 63.813C96.7437 89.0231 79.0966 95.9559 70.9034 97.8466C57.9832 82.4055 64.4433 56.0925 85.084 38.7605ZM153.309 -15.9139C149.527 -28.834 141.964 -43.4874 128.099 -58.2983C99.7374 -88.5504 101.313 -113.445 103.992 -124.475C104.149 -124.475 104.464 -124.632 104.622 -124.632C134.086 -133.456 167.49 -108.246 179.149 -68.3824C189.548 -32.7731 179.464 2.521 156.303 16.0714C157.09 8.03571 157.09 -2.99371 153.309 -15.9139ZM150 150C232.878 150 300 82.8782 300 0C300 -82.8782 232.878 -150 150 -150C67.1218 -150 0 -82.8782 0 0C0 82.8782 67.1218 150 150 150ZM178.204 95.9559C177.258 90.5987 176.628 77.8361 187.5 61.9223C197.426 47.2689 198.214 36.3971 197.426 30.0945C205.935 34.3488 209.874 48.8445 206.092 65.0735C201.838 83.666 189.391 97.3739 178.204 95.9559ZM162.132 59.8739C166.387 41.4391 178.834 27.5735 190.021 28.9916H190.179C191.282 33.5609 191.912 44.4328 181.355 59.8739C176.155 67.5945 173.477 74.5273 172.059 80.5147C170.641 86.5021 170.641 91.3866 171.113 94.6954C162.447 90.9139 158.351 76.2605 162.132 59.8739ZM72.479 -36.2395C62.0798 -71.5336 72.0063 -106.355 94.6954 -120.378C92.8046 -105.882 95.1681 -81.145 121.796 -52.7836C150.788 -21.9013 149.685 7.24789 147.321 20.0105C147.321 20.0105 147.321 20.0105 147.164 20.0105C117.7 28.9916 84.2962 3.78151 72.479 -36.2395Z" fill="#17453B" fill-opacity="0.8"/>
<path d="M204.152 -56.8869L204.248 -56.8606C213.54 -78.5955 224.72 -90.7184 240.465 -99.2207L240.435 -99.3143C218.029 -96.3163 206.99 -78.1693 204.152 -56.8869ZM190.129 -56.8761L190.228 -56.8727C194.485 -84.9387 181.398 -100.403 171.292 -105.14L171.235 -105.06C183.356 -92.4665 188.711 -74.0449 190.129 -56.8761ZM199.584 21.89L199.577 21.9205L199.601 21.9402C204.905 26.215 212.573 25.1774 220.654 20.1119C228.738 15.0449 237.251 5.9389 244.266 -5.96201C250.571 -16.4445 254.67 -27.4007 256.385 -37.0974C258.099 -46.7921 257.431 -55.2362 254.192 -60.6873L254.132 -60.7888L254.101 -60.6748C251.582 -51.3873 244.97 -36.2704 227.174 -21.1515L227.173 -21.1515C207.783 -4.59866 201.476 13.6892 199.584 21.89ZM193.445 18.4616L193.505 18.5565L193.536 18.4484C194.953 13.4098 197.472 6.48132 202.039 -1.07707L202.039 -1.07747C206.606 -8.79373 213.22 -17.2977 222.511 -25.1719L222.512 -25.1721C241.429 -41.4093 246.476 -57.0186 247.896 -64.2761L247.901 -64.3022L247.882 -64.3211L247.724 -64.4786L247.725 -64.4788L247.721 -64.482C242.495 -68.7572 234.866 -67.7192 226.785 -62.654C218.702 -57.587 210.149 -48.481 203.056 -36.5802C196.75 -26.0188 192.651 -14.9443 190.976 -5.16864C189.301 4.60475 190.048 13.0889 193.445 18.4616ZM145.781 34.4709L145.763 34.4526L145.737 34.457C138.473 35.7203 123.333 41.403 112.612 65.9987C107.257 78.125 100.644 86.469 94.0337 91.8204L94.0326 91.8213C87.4214 97.488 80.8103 100.321 75.7729 101.896L75.6782 101.925L75.7583 101.984C89.8068 112.244 113.467 109.238 131.912 93.7883L131.88 93.75L131.912 93.7883C142.24 85.1162 149.022 74.196 151.605 63.5294C154.187 52.8627 152.572 42.446 146.099 34.7892L146.099 34.789L146.096 34.7861L145.939 34.6285L145.781 34.4709ZM140.875 30.3001L140.975 30.2708L140.89 30.2111C126.684 20.2671 103.34 23.43 85.052 38.7222L85.084 38.7605L85.0519 38.7222C74.7242 47.3943 67.9426 58.3145 65.3598 69.0009C62.7769 79.6873 64.3925 90.1432 70.865 97.8787L70.8847 97.9023L70.9146 97.8954C79.1196 96.0019 96.7819 89.0607 107.661 63.8328C117.739 40.6851 131.751 32.9746 140.875 30.3001ZM103.992 -124.525H103.952L103.943 -124.487C101.261 -113.442 99.6886 -88.5293 128.062 -58.2641C141.923 -43.4588 149.482 -28.8123 153.261 -15.8998C157.04 -2.98727 157.04 8.03546 156.253 16.0665L156.243 16.1641L156.328 16.1146C179.517 2.5482 189.6 -32.7747 179.197 -68.3964C173.365 -88.3374 162.093 -104.615 148.592 -114.805C135.094 -124.993 119.363 -129.096 104.614 -124.682C104.57 -124.681 104.518 -124.67 104.466 -124.656C104.41 -124.641 104.35 -124.621 104.291 -124.601C104.232 -124.581 104.174 -124.562 104.121 -124.548C104.068 -124.533 104.024 -124.525 103.992 -124.525ZM178.155 95.9646L178.161 96.0008L178.197 96.0055C183.814 96.7174 189.738 93.6319 194.785 88.0522C199.833 82.4713 204.012 74.3881 206.141 65.0849C208.033 56.9639 207.995 49.2744 206.417 43.0811C204.839 36.8889 201.721 32.1858 197.449 30.0498L197.365 30.008L197.377 30.1007C198.163 36.3905 197.379 47.2503 187.459 61.8942C176.578 77.8205 177.207 90.5967 178.155 95.9646ZM190.227 28.9799L190.218 28.9416H190.179H190.024C184.408 28.2312 178.486 31.3562 173.44 36.9544C168.391 42.555 164.212 50.6381 162.084 59.8627C160.191 68.0626 160.27 75.8309 161.907 82.0243C163.544 88.2165 166.741 92.842 171.093 94.7412L171.176 94.7771L171.163 94.6883C170.691 91.386 170.691 86.5078 172.107 80.5262C173.524 74.5445 176.2 67.6173 181.397 59.9019C191.96 44.4499 191.334 33.5638 190.227 28.9799ZM94.745 -120.372L94.7586 -120.476L94.6691 -120.421C71.9541 -106.382 62.0281 -71.5324 72.431 -36.2254C78.3424 -16.2057 89.6532 0.111588 103.174 10.3012C116.692 20.4892 132.422 24.5533 147.171 20.0605H147.172H147.173H147.174H147.175H147.176H147.176H147.177H147.178H147.179H147.18H147.181H147.182H147.182H147.183H147.184H147.185H147.186H147.187H147.188H147.188H147.189H147.19H147.191H147.192H147.192H147.193H147.194H147.195H147.196H147.196H147.197H147.198H147.199H147.2H147.2H147.201H147.202H147.203H147.203H147.204H147.205H147.206H147.206H147.207H147.208H147.209H147.209H147.21H147.211H147.212H147.212H147.213H147.214H147.214H147.215H147.216H147.217H147.217H147.218H147.219H147.219H147.22H147.221H147.221H147.222H147.223H147.223H147.224H147.225H147.225H147.226H147.227H147.227H147.228H147.229H147.229H147.23H147.231H147.231H147.232H147.233H147.233H147.234H147.234H147.235H147.236H147.236H147.237H147.238H147.238H147.239H147.239H147.24H147.241H147.241H147.242H147.242H147.243H147.243H147.244H147.245H147.245H147.246H147.246H147.247H147.247H147.248H147.249H147.249H147.25H147.25H147.251H147.251H147.252H147.252H147.253H147.253H147.254H147.254H147.255H147.255H147.256H147.257H147.257H147.258H147.258H147.259H147.259H147.26H147.26H147.26H147.261H147.261H147.262H147.262H147.263H147.263H147.264H147.264H147.265H147.265H147.266H147.266H147.267H147.267H147.268H147.268H147.268H147.269H147.269H147.27H147.27H147.271H147.271H147.272H147.272H147.272H147.273H147.273H147.274H147.274H147.274H147.275H147.275H147.276H147.276H147.276H147.277H147.277H147.278H147.278H147.278H147.279H147.279H147.28H147.28H147.28H147.281H147.281H147.281H147.282H147.282H147.283H147.283H147.283H147.284H147.284H147.284H147.285H147.285H147.285H147.286H147.286H147.286H147.287H147.287H147.287H147.288H147.288H147.288H147.289H147.289H147.289H147.29H147.29H147.29H147.291H147.291H147.291H147.292H147.292H147.292H147.292H147.293H147.293H147.293H147.294H147.294H147.294H147.295H147.295H147.295H147.295H147.296H147.296H147.296H147.296H147.297H147.297H147.297H147.298H147.298H147.298H147.298H147.299H147.299H147.299H147.299H147.3H147.3H147.3H147.3H147.301H147.301H147.301H147.301H147.301H147.302H147.302H147.302H147.302H147.303H147.303H147.303H147.303H147.304H147.304H147.304H147.304H147.304H147.305H147.305H147.305H147.305H147.305H147.306H147.306H147.306H147.306H147.306H147.307H147.307H147.307H147.307H147.307H147.308H147.308H147.308H147.308H147.308H147.308H147.309H147.309H147.309H147.309H147.309H147.309H147.31H147.31H147.31H147.31H147.31H147.31H147.311H147.311H147.311H147.311H147.311H147.311H147.311H147.312H147.312H147.312H147.312H147.312H147.312H147.312H147.313H147.313H147.313H147.313H147.313H147.313H147.313H147.314H147.314H147.314H147.314H147.314H147.314H147.314H147.314H147.315H147.315H147.315H147.315H147.315H147.316H147.316H147.316H147.316H147.316H147.317H147.317H147.317H147.317H147.317H147.317H147.318H147.318H147.318H147.318H147.318H147.318H147.318H147.319H147.319H147.319H147.319H147.319H147.319H147.319H147.32H147.32H147.32H147.32H147.32H147.32H147.32H147.321H147.321H147.321H147.321H147.321H147.321H147.321H147.321H147.363L147.371 20.0196C149.736 7.24522 150.838 -21.9213 121.833 -52.8178C95.2149 -81.1681 92.8561 -105.89 94.745 -120.372ZM299.95 0C299.95 82.8505 232.851 149.95 150 149.95C67.1495 149.95 0.05 82.8505 0.05 0C0.05 -82.8505 67.1495 -149.95 150 -149.95C232.851 -149.95 299.95 -82.8505 299.95 0Z" stroke="#17453B" stroke-opacity="0.8" stroke-width="0.1"/>
</svg>
