<svg width="150" height="150" viewBox="0 0 150 150" fill="none" xmlns="http://www.w3.org/2000/svg">
<path fill-rule="evenodd" clip-rule="evenodd" d="M102.101 46.5599C103.519 35.9244 109.034 26.8645 120.221 25.3676C112.342 29.6219 106.749 35.688 102.101 46.5599ZM95.0893 46.5599C94.3803 37.9727 91.7017 28.7553 85.6355 22.4527C90.6775 24.8162 97.2164 32.5368 95.0893 46.5599ZM99.8162 85.9506C100.762 81.854 103.913 72.7153 113.603 64.4433C122.505 56.8803 125.814 49.3172 127.075 44.6691C130.305 50.105 128.414 61.5284 122.111 72.0063C115.1 83.9023 105.095 90.2048 99.8162 85.9506ZM96.7437 84.2174C93.3561 78.8603 95.2468 67.2794 101.549 56.7227C108.64 44.8267 118.645 38.5242 123.845 42.7784L123.923 42.8571C123.214 46.4811 120.693 54.2805 111.239 62.395C106.591 66.334 103.283 70.5882 100.998 74.4485C98.7132 78.23 97.4527 81.6964 96.7437 84.2174ZM56.3288 108.009C61.6859 95.7195 69.249 92.8834 72.8729 92.2532C72.9517 92.3319 72.9517 92.3319 73.0305 92.4107C79.4905 100.053 76.2605 113.209 65.9401 121.875C56.7227 129.596 44.9055 131.092 37.8939 125.972C40.4149 125.184 43.7237 123.766 47.0326 120.93C50.3414 118.251 53.6502 114.076 56.3288 108.009ZM42.542 94.3803C51.6807 86.7384 63.3403 85.1628 70.4307 90.126C65.8613 91.4653 58.8498 95.3256 53.8078 106.907C48.3719 119.512 39.5483 122.978 35.4517 123.923C28.9916 116.203 32.2216 103.046 42.542 94.3803ZM76.6544 67.0431C74.7637 60.583 70.9821 53.2563 64.0494 45.8508C49.8687 30.7248 50.6565 18.2773 51.9958 12.7626C52.0746 12.7626 52.2321 12.6838 52.3109 12.6838C67.0431 8.27206 83.7448 20.8771 89.5746 40.8088C94.7742 58.6134 89.7321 76.2605 78.1513 83.0357C78.5452 79.0179 78.5452 73.5031 76.6544 67.0431ZM75 150C116.439 150 150 116.439 150 75C150 33.5609 116.439 0 75 0C33.5609 0 0 33.5609 0 75C0 116.439 33.5609 150 75 150ZM89.1019 122.978C88.6292 120.299 88.3141 113.918 93.75 105.961C98.7132 98.6345 99.1071 93.1985 98.7132 90.0473C102.967 92.1744 104.937 99.4223 103.046 107.537C100.919 116.833 94.6954 123.687 89.1019 122.978ZM81.0662 104.937C83.1933 95.7195 89.417 88.7868 95.0105 89.4958H95.0893C95.6408 91.7805 95.9559 97.2164 90.6775 104.937C88.0777 108.797 86.7384 112.264 86.0294 115.257C85.3204 118.251 85.3204 120.693 85.5567 122.348C81.2237 120.457 79.1754 113.13 81.0662 104.937ZM36.2395 56.8803C31.0399 39.2332 36.0032 21.8225 47.3477 14.8109C46.4023 22.0588 47.584 34.4275 60.8981 48.6082C75.3939 64.0494 74.8424 78.6239 73.6607 85.0052C73.6607 85.0052 73.6607 85.0052 73.5819 85.0052C58.8498 89.4958 42.1481 76.8908 36.2395 56.8803Z" fill="#17453B" fill-opacity="0.8"/>
<path d="M102.051 46.5533L102.147 46.5795C106.791 35.7165 112.378 29.6597 120.244 25.4116L120.214 25.3181C108.995 26.8192 103.471 35.9063 102.051 46.5533ZM95.0395 46.564L95.1387 46.5674C97.2688 32.5245 90.7207 24.7812 85.6567 22.4075L85.5995 22.4874C91.6544 28.7782 94.3309 37.9824 95.0395 46.564ZM99.7675 85.9394L99.7604 85.9699L99.7848 85.9896C102.45 88.1372 106.297 87.6117 110.34 85.0772C114.386 82.541 118.646 77.9846 122.154 72.0317C125.308 66.7881 127.359 61.3073 128.217 56.4557C129.074 51.606 128.742 47.3767 127.118 44.6436L127.057 44.542L127.026 44.656C125.768 49.2954 122.464 56.8494 113.571 64.4052L113.57 64.4053C103.87 72.686 100.715 81.8353 99.7675 85.9394ZM96.7014 84.2442L96.7614 84.339L96.7918 84.231C97.4999 81.7133 98.7588 78.2513 101.041 74.4744L101.041 74.474C103.323 70.618 106.628 66.3682 111.272 62.4331L111.272 62.4329C120.735 54.3102 123.261 46.5003 123.972 42.8667L123.978 42.8406L123.959 42.8218L123.88 42.743L123.88 42.7428L123.876 42.7397C121.251 40.5915 117.423 41.1175 113.379 43.6518C109.333 46.188 105.054 50.7443 101.506 56.6971C98.3524 61.9801 96.3017 67.5203 95.4635 72.4115C94.6256 77.3004 94.9978 81.55 96.7014 84.2442ZM72.9083 92.2178L72.8899 92.1994L72.8643 92.2039C69.2245 92.8369 61.6471 95.6835 56.283 107.989C53.6071 114.049 50.3028 118.218 47.0011 120.891L47 120.892C43.6977 123.722 40.3954 125.138 37.879 125.924L37.7843 125.954L37.8644 126.012C44.9013 131.151 56.7445 129.643 65.9722 121.913L65.9723 121.913C71.1397 117.574 74.5337 112.11 75.8266 106.771C77.1194 101.431 76.3114 96.2144 73.0686 92.3784L73.0688 92.3783L73.0658 92.3754L72.987 92.2966L72.9083 92.2178ZM42.5099 94.3419L42.5099 94.342C37.3424 98.6811 33.9484 104.146 32.6556 109.495C31.3627 114.844 32.1708 120.08 35.4133 123.955L35.433 123.979L35.4629 123.972C39.5713 123.024 48.41 119.549 53.8536 106.926C58.8896 95.3595 65.8893 91.5092 70.4447 90.174L70.5446 90.1448L70.4593 90.0851C63.3439 85.1043 51.6588 86.6915 42.5099 94.3419ZM51.9958 12.7126H51.9565L51.9472 12.7508C50.6042 18.2808 49.8199 30.7459 64.0129 45.885C70.9404 53.2849 74.7179 60.6047 76.6064 67.0571C78.495 73.5096 78.4949 79.0176 78.1015 83.0308L78.0919 83.1283L78.1765 83.0789C89.7847 76.2877 94.8258 58.6119 89.6226 40.7948L89.5746 40.8088L89.6226 40.7948C86.7049 30.8197 81.0663 22.676 74.3112 17.5776C67.5581 12.4807 59.686 10.4256 52.303 12.634C52.2784 12.6351 52.2516 12.641 52.2264 12.6479C52.198 12.6556 52.1674 12.6658 52.1384 12.6755L52.1376 12.6758C52.1077 12.6857 52.0795 12.6951 52.054 12.7021C52.0279 12.7092 52.0086 12.7126 51.9958 12.7126ZM89.0526 122.987L89.059 123.023L89.0956 123.028C91.9154 123.385 94.8846 121.836 97.411 119.043C99.9385 116.249 102.03 112.203 103.095 107.548C104.042 103.484 104.023 99.6355 103.233 96.5344C102.443 93.4343 100.88 91.075 98.7356 90.0025L98.652 89.9608L98.6636 90.0535C99.0559 93.192 98.6655 98.6158 93.7086 105.933C88.2643 113.902 88.5781 120.297 89.0526 122.987ZM95.1379 89.4841L95.1287 89.4458H95.0893H95.0136C92.1946 89.0899 89.2266 90.659 86.7013 93.4605C84.1739 96.2643 82.0827 100.31 81.0175 104.926C80.0706 109.029 80.1094 112.917 80.9292 116.019C81.7486 119.119 83.3508 121.44 85.5367 122.394L85.6189 122.429L85.6062 122.341C85.3708 120.693 85.3704 118.257 86.0781 115.269C86.7858 112.281 88.1227 108.82 90.719 104.965C96.0046 97.2335 95.6929 91.7833 95.1379 89.4841ZM36.1915 56.8944L36.1915 56.8944C39.1486 66.9088 44.8068 75.0722 51.5718 80.1706C58.3346 85.2673 66.2065 87.3028 73.5894 85.0553H73.5895H73.59H73.5904H73.5908H73.5912H73.5917H73.5921H73.5925H73.5929H73.5933H73.5938H73.5942H73.5946H73.595H73.5954H73.5958H73.5962H73.5966H73.597H73.5974H73.5978H73.5982H73.5986H73.599H73.5994H73.5998H73.6002H73.6005H73.6009H73.6013H73.6017H73.6021H73.6025H73.6028H73.6032H73.6036H73.604H73.6043H73.6047H73.6051H73.6054H73.6058H73.6061H73.6065H73.6069H73.6072H73.6076H73.6079H73.6083H73.6086H73.609H73.6093H73.6097H73.61H73.6104H73.6107H73.6111H73.6114H73.6117H73.6121H73.6124H73.6127H73.6131H73.6134H73.6137H73.614H73.6144H73.6147H73.615H73.6153H73.6157H73.616H73.6163H73.6166H73.6169H73.6172H73.6175H73.6178H73.6181H73.6185H73.6188H73.6191H73.6194H73.6197H73.62H73.6203H73.6206H73.6208H73.6211H73.6214H73.6217H73.622H73.6223H73.6226H73.6229H73.6231H73.6234H73.6237H73.624H73.6243H73.6245H73.6248H73.6251H73.6254H73.6256H73.6259H73.6262H73.6264H73.6267H73.627H73.6272H73.6275H73.6277H73.628H73.6283H73.6285H73.6288H73.629H73.6293H73.6295H73.6298H73.63H73.6302H73.6305H73.6307H73.631H73.6312H73.6315H73.6317H73.6319H73.6322H73.6324H73.6326H73.6329H73.6331H73.6333H73.6336H73.6338H73.634H73.6342H73.6345H73.6347H73.6349H73.6351H73.6353H73.6355H73.6358H73.636H73.6362H73.6364H73.6366H73.6368H73.637H73.6372H73.6374H73.6376H73.6378H73.638H73.6382H73.6385H73.6386H73.6388H73.639H73.6392H73.6394H73.6396H73.6398H73.64H73.6402H73.6404H73.6406H73.6407H73.6409H73.6411H73.6413H73.6415H73.6417H73.6418H73.642H73.6422H73.6424H73.6425H73.6427H73.6429H73.6431H73.6432H73.6434H73.6436H73.6437H73.6439H73.6441H73.6442H73.6444H73.6445H73.6447H73.6449H73.645H73.6452H73.6453H73.6455H73.6456H73.6458H73.646H73.6461H73.6462H73.6464H73.6465H73.6467H73.6468H73.647H73.6471H73.6473H73.6474H73.6476H73.6477H73.6478H73.648H73.6481H73.6482H73.6484H73.6485H73.6486H73.6488H73.6489H73.649H73.6492H73.6493H73.6494H73.6495H73.6497H73.6498H73.6499H73.65H73.6502H73.6503H73.6504H73.6505H73.6506H73.6507H73.6509H73.651H73.6511H73.6512H73.6513H73.6514H73.6515H73.6516H73.6518H73.6519H73.652H73.6521H73.6522H73.6523H73.6524H73.6525H73.6526H73.6527H73.6528H73.6529H73.653H73.6531H73.6532H73.6533H73.6534H73.6535H73.6536H73.6537H73.6538H73.6538H73.6539H73.654H73.6541H73.6542H73.6543H73.6544H73.6545H73.6545H73.6546H73.6547H73.6548H73.6549H73.655H73.655H73.6551H73.6552H73.6553H73.6554H73.6554H73.6555H73.6556H73.6557H73.6557H73.6558H73.6559H73.6559H73.656H73.6561H73.6562H73.6562H73.6563H73.6564H73.6564H73.6565H73.6566H73.6566H73.6567H73.6568H73.6568H73.6569H73.6569H73.657H73.6571H73.6571H73.6572H73.6573H73.6575H73.6575H73.6576H73.6577H73.6578H73.6579H73.658H73.6581H73.6582H73.6583H73.6584H73.6585H73.6586H73.6587H73.6587H73.6588H73.6589H73.659H73.659H73.6591H73.6592H73.6592H73.6593H73.6594H73.6594H73.6595H73.6596H73.6596H73.6597H73.6598H73.6599H73.6599H73.66H73.6601H73.6601H73.6602H73.6603H73.6603H73.6604H73.6605H73.6605H73.6606H73.6607H73.6607H73.7023L73.7099 85.0144C74.8938 78.6213 75.4437 64.0293 60.9346 48.574C47.6309 34.4044 46.4538 22.0507 47.3973 14.8174L47.4109 14.7131L47.3214 14.7684C35.951 21.796 30.9882 39.2344 36.1915 56.8944ZM149.95 75C149.95 116.411 116.411 149.95 75 149.95C33.5885 149.95 0.05 116.411 0.05 75C0.05 33.5885 33.5885 0.05 75 0.05C116.411 0.05 149.95 33.5885 149.95 75Z" stroke="#17453B" stroke-opacity="0.8" stroke-width="0.1"/>
</svg>
